<svg xmlns="http://www.w3.org/2000/svg" viewBox="0 0 48 48"><defs><style>.cls-1{fill:#9fdbf3;}.cls-2{fill:#b2e5fb;}.cls-3{fill:#dad7e5;}.cls-4{fill:#edebf2;}.cls-5{fill:#9dcc6b;}.cls-6{fill:#b5e08c;}</style></defs><title>2. Earth with clouds</title><g id="_2._Earth_with_clouds" data-name="2. Earth with clouds"><path class="cls-1" d="M44,27A20,20,0,0,1,24,47C3.34,47-3.72,19.27,14.47,9.42A20,20,0,0,1,44,27Z"/><path class="cls-2" d="M44,27a19.92,19.92,0,0,1-7.47,15.58A19.89,19.89,0,0,1,27,45C8.1,45-.15,21.15,14.47,9.42A20,20,0,0,1,44,27Z"/><path class="cls-2" d="M19.63,18.2c-.7,1.88-3.8.88-5.2,1.58-2.2,1.1-.4,5-2.6,6.09A3.82,3.82,0,0,1,7,24.57,19.87,19.87,0,0,1,8.66,17H19.24A7,7,0,0,1,19.63,18.2Z"/><path class="cls-2" d="M13.43,19.78c-2.2,1.1-.4,5-2.6,6.09A3.62,3.62,0,0,1,7,25.55,19.79,19.79,0,0,1,8.66,17H18.75C19,20.46,15.07,19,13.43,19.78Z"/><path class="cls-3" d="M47,29a4,4,0,0,1-4,4H30a3,3,0,0,1-3-3,3,3,0,0,1,1.38-2.52A3,3,0,0,1,30.09,27a6,6,0,1,1,11.84-1.86A4,4,0,0,1,47,29Z"/><path class="cls-3" d="M19,44.45c-1.35.8-1.31.55-15,.55-4,0-4-6,0-6,.16,0,0-.1,0-1a6,6,0,0,1,11.93-.85C20.38,35.84,23.06,42.12,19,44.45Z"/><path class="cls-4" d="M19,44.45c-1.35.8-1.31.55-15,.55a1,1,0,0,1-.24,0c-2.07-2.34.59-5.55,2.33-5-1.19-6.56,8.79-10.48,9.84-2.86C20.36,35.85,23.07,42.12,19,44.45Z"/><path class="cls-4" d="M45,32.45c-1.35.8-1.31.55-15,.55a1,1,0,0,1-.24,0c-2.07-2.34.59-5.55,2.33-5-1.19-6.56,8.79-10.48,9.84-2.86C46.36,23.85,49.07,30.12,45,32.45Z"/><path class="cls-5" d="M38.75,33c-.45,5.59-7.74,6.42-5.18.09C33.61,33,33,33,38.75,33Z"/><path class="cls-6" d="M38.75,33a6,6,0,0,1-.52,2.12c-2.1,1.07-3.28,0-3.12-2.12Z"/><path class="cls-5" d="M43.91,25.11a3.78,3.78,0,0,0-2,0A6,6,0,0,0,30,26c0,1,.2,1,0,1a3.16,3.16,0,0,0-1.63.48c-1.2-.17-2.16-.76-2.63-3.09-.54-2.69,2.1-3.84,3.48-5.22,2.61-2.6,0-3.47.87-6.08.54-1.66,2.84-2.61,4.45-3.08A20,20,0,0,1,43.91,25.11Z"/><path class="cls-6" d="M43.91,25.11a3.8,3.8,0,0,0-2,0A6,6,0,1,0,30.09,27a2.72,2.72,0,0,0-1.58.4,5.42,5.42,0,0,1-.77-2c-.54-2.69,2.1-3.84,3.48-5.22,2.61-2.6,0-3.47.87-6.08.5-1.53,2.5-2.46,4.07-3A19.9,19.9,0,0,1,43.91,25.11Z"/><path class="cls-5" d="M14.43,21.78c-2.2,1.1-.4,5-2.6,6.09-1.53.77-4.42.86-6.27-3.91a24.84,24.84,0,0,1-.78-2.48,20.07,20.07,0,0,1,2-4.55c.54.11-.06.07,12.51.07C21.66,22.76,16.05,21,14.43,21.78Z"/><path class="cls-6" d="M19.63,18.2c-.7,1.88-3.8.88-5.2,1.58-2.2,1.1-.4,5-2.6,6.09C9,27.3,5.16,25,8.66,17H19.24A7,7,0,0,1,19.63,18.2Z"/><path class="cls-5" d="M24.83,37.64c-1.12,1.48-2.86.52-4,2.35a4,4,0,0,0-4.94-2.84,6,6,0,0,0-2.48-4.06c1.06-3.32,5.82-1.64,7.07.87,1,1.94,3.75-.44,4.55,2.29A1.55,1.55,0,0,1,24.83,37.64Z"/><path class="cls-6" d="M25.07,36.25c-.9.48-1.65.4-2.37.87a1,1,0,0,1-1.36-.32c-1.61-2.44-3.69-.67-4.89-3.3a6.12,6.12,0,0,0-1.56-2.06c1.94-.87,4.87,1,5.63,2.52C21.49,35.9,24.27,33.52,25.07,36.25Z"/><path class="cls-3" d="M27,12a5,5,0,0,1-5,5H7.5C1.85,17,1.4,8.65,7,8a7,7,0,0,1,13.94-.92A5,5,0,0,1,27,12Z"/><path class="cls-4" d="M27,12a5,5,0,0,1-5,5H7.67A4.5,4.5,0,0,1,10,9a7,7,0,0,1,7-7c.44,0,.57,0,.67,0a7,7,0,0,1,3.27,5.08A5,5,0,0,1,27,12Z"/></g></svg>