<svg xmlns="http://www.w3.org/2000/svg" viewBox="0 0 512 512"><title>Artboard 141</title><g id="Cloud_Rain" data-name="Cloud Rain"><path d="M426.61328,171.737c.00261-.36068.05339-.70964.05339-1.07031a149.25026,149.25026,0,0,0-284.776-62.60026A105.31355,105.31355,0,0,0,128,106.66667,106.66666,106.66666,0,1,0,128,320H416a74.4996,74.4996,0,0,0,10.61328-148.263Z" style="fill:#e4dbff"/><path d="M128,106.66667A106.66663,106.66663,0,0,0,21.33333,213.33333v.14909l.00033.11621v.02157l.00032.10522v.024l.00066.1167v.02734c.00032.03671.00065.07479.00065.11149l.00032.00928c0,.0424.00033.07951.00065.12191l.00033.02425.00195.24373.00033.02653c.00032.04232.00065.07707.0013.11939v.01473c.00065.0367.001.074.0013.11068l.00033.0214.00162.11784.00033.02734.00163.09961.00032.02564c.00033.0367.001.07633.00163.113l.00065.03312.002.11263.00033.01775c.00033.03385.001.07185.00163.10563l.00065.02881c.00065.03946.0013.07584.00228.11531l.00032.02547c.001.03378.00163.067.00228.10075l.00033.02564.0026.11491.00065.02978.00261.106.00032.01375.00293.11768.00065.0284.00293.11922.00033.00765.00293.11344.00065.027c.0013.03939.00228.07837.00325.11768l.00066.01945.00292.10368.001.02563c.001.03931.00228.07642.00358.11572l.00065.02645.00358.10791.00033.01506.00391.1158.001.03068.00391.117.00065.01041.00391.1097.001.02775c.0013.03923.00261.07553.00423.11475l.001.026c.001.03369.00228.06771.00358.10132l.001.02425.00456.11247.0013.03369.00423.10612.00065.0109.00456.11622.0013.03076c.00195.03922.00358.077.00521.11613l.00065.01351.00488.11027.001.0236.00521.11775.001.02108.00521.108.00065.0175.00586.11865.001.02417.00586.11637.00032.005.00586.11987.00163.02653.00586.117.001.01481c.00162.03629.00358.0734.00553.1097l.0013.02156c.002.03907.00423.07813.00651.11719l.0013.0249c.00163.03345.00391.071.00586.10458l.001.01847c.002.03906.00423.07878.00651.11784l.00163.02474.00651.11556.00032.00537.00684.11491.00195.03263.00684.11393.0013.0184c.002.03344.00423.073.00651.10644l.0013.02206c.00261.039.00521.08081.00749.11979l.0013.01668.00684.11076.0013.01693.00749.11735.00163.02433c.00553.08073.01074.16105.01627.2417l.00163.02319.00814.11882.0013.015c.00228.03613.00488.07332.00749.10946l.00162.01994c.00261.0389.00554.07959.00847.11848l.00163.02116c.0026.03614.0052.07577.00813.1119l.00065.01123c.00326.04167.00586.07788.00879.11955l.002.02319.01823.24089.002.02344.00911.11881.001.01392.00879.10766.002.02417.00912.117.00162.019c.00359.0415.00651.078.00977.11955l.00033.00236c.00325.04158.00683.08276.01041.12435l.0013.01741c.00684.08309.014.16415.02084.24715l.00163.01652.01041.12142.0013.01392.0101.11589.001.01066.01074.1206.002.02206c.00358.03873.00716.07706.01041.11572l.00065.00472c.00359.04142.00717.07975.01107.12117l.002.02165.02278.24373.00163.01734.01172.123.001.00749.0114.11971.0013.01148.01172.12141.00195.01807c.00391.04142.00749.07788.01172.11922l.00033.00285c.0039.04134.00846.084.01269.12533l.001.01253.02571.25106.00131.01237.013.124.001.00993.0127.118.001.0105c.00423.04126.00846.08065.013.12191l.00162.01635c.00912.08252.01758.16146.0267.244l.00228.02092.02734.24625.0013.01188c.00456.04126.00944.084.01432.12517l.00066.00594.01367.12182.0013.009c.00456.04118.00911.08.014.12117l.00195.01807.02865.24251.00227.01986.01433.12.001.00782.014.1167.002.01505c.00456.03841.00977.082.01465.12028l.002.01554.014.11524.001.00822.0153.1215.002.01725.03125.24634.00163.013c.01042.082.02116.16634.0319.24829l.00163.01221.016.123.00163.01058c.00521.041.01041.08073.016.12175l.00065.0035c.00553.0437.01074.08252.0166.12622l.0013.00895.03386.25033.00162.01188c.00554.04093.0114.08455.01726.12549v.00024l.01725.12549.001.00814.01757.124.00131.01058c.01139.08179.02376.16772.03548.24943l.0013.01115c.01172.08162.02409.168.03613.24967l.0013.0105.03744.25472.00033.00228.0192.12891.00033.00187c.013.08691.02539.1709.03873.25773l.00065.0039c.013.08692.02572.1705.03907.25733l.00032.002c.01335.08675.0267.172.04037.25871v.00106l.01985.12622.00163.00911c.0127.0813.02637.16675.03939.248l.00228.01335c.013.08121.02669.16748.04.24861l.0013.00757c.03516.21639.07031.42765.10677.64364l.00065.00333c.06576.38876.13281.772.2028,1.15926l.001.00521A106.55158,106.55158,0,0,0,58.999,294.67887l.00228.002c.44792.38045.89681.75529,1.35124,1.12841l.00228.002c.06282.05159.125.10246.18815.154l.012.00993c.06088.0498.12045.09814.18132.14787l.013.01049.09147.0743.00228.002.08952.07259.01074.00846.09082.07365.00846.00676c.0612.04947.124.09993.18555.14933l.01172.00952.09212.07381v.00008l.09147.07324.01237.00993.0905.07227.00814.00651.08919.071.00553.00432.08985.07153.01822.01432.08073.06421.00879.007.08757.06917.01985.01579.08724.06877.00521.00415.08269.06494.0205.01619.08561.06722.01726.0136.07357.05769.02018.01587.08528.06641.01954.0153.07584.05916.0153.01188.084.06535.02311.01807.084.0651.01888.01465.06869.05306.02832.02189.07877.06087.02995.02312.05957.04589.02767.02125.07975.06144.02832.02148.06543.05038.03321.02531.06738.05143.03581.0275.071.054.03385.02588.055.04183.03841.02921.07129.054.03971.03.04688.03564.0498.03768.06087.046.04069.03068.05111.03858.04883.03662.05924.0446.03614.027.06315.04753.04524.03385.05632.042.03385.02547.07487.05566.03841.02873.04883.03621.03679.02759.07129.05282.04427.033.04687.03442.057.04232.05306.0393.04166.03068.05632.04143.057.042.04.0293.04721.03475.06705.04923.04688.03426.03808.02792.07259.053.04265.03117.04785.03475.03223.02344.08789.06405.02832.0205.0511.037.0319.02311.08692.063.02962.0214.09147.06592.02572.01856.05306.03833.02767.01985.0957.06869.02149.01546.05371.03841.03125.02222.09082.065.02343.01677.0573.04077.0192.01359.09668.06885.02832.02c.0599.04256.11524.0817.17513.1241l.02084.01481.18261.12875.01009.00691.11361.07984.01465.01033c.06022.04216.1263.08846.18685.13054l.01139.00813c.06055.04208.12565.08749.1862.1294l.01562.0109c.06315.04387.12305.08529.1862.129l.00716.005.11979.08252.0101.00708c.06608.04549.125.086.1914.13134l.00716.005c.06608.04533.12631.08642.19239.13159l.00748.005c.04134.02833.08464.05778.12631.08594l.00227.00171c.06641.04517.12956.08805.19629.13306l.00391.00268c.06641.045.12825.08675.195.1316l.00618.00415a106.30693,106.30693,0,0,0,23.848,12.02075l.1364.04793.06087.02181q.626.22045,1.25456.43327l.07421.025.03288.01107q.26954.09095.54.18042l.00554.00187q.3833.127.76725.25082a42.35157,42.35157,0,0,0,53.068-27.11988,42.95352,42.95352,0,0,0-27.0166-54.14046l-.21549-.07251-.0752-.02531-.13932-.04988A21.3514,21.3514,0,0,1,128,192h0a20.77991,20.77991,0,0,1,12.68783,4.17472l.11653.08643.0739.05721.1888.14551a42.669,42.669,0,0,0,53.13574-66.772c-.27734-.21964-.55827-.44018-.83757-.65714l-.02669-.02059-.02148-.01676q-.34423-.26661-.69011-.53068l-.00521-.004c-.20963-.15991-.41894-.31828-.62988-.47673l-.07617-.05639c-.07454-.05632-.15039-.11337-.22559-.16927a106.29572,106.29572,0,0,0-33.73632-16.83049l-.00554-.00163c-.084-.02449-.16829-.049-.25228-.07332l-.0013-.00033-.12532-.03621-.00489-.00138c-.084-.02417-.16862-.04851-.25293-.07243l-.001-.00033q-.38429-.10962-.76921-.21623l-.0013-.00032c-.08431-.02344-.1683-.04655-.25261-.06966l-.00651-.00179q-.1914-.0525-.38313-.10433l-.001-.00025c-.12891-.03483-.25553-.06884-.38477-.10319l-.00423-.00122c-.085-.02254-.16959-.04492-.25455-.0673l-.00228-.00065c-.12924-.034-.25554-.06706-.38509-.10067l-.00359-.001c-.12792-.03321-.25651-.06625-.38444-.099l-.0052-.0013c-.084-.02141-.16667-.0424-.25033-.06356l-.01139-.00285q-.12354-.03124-.24772-.06234l-.00977-.00244-.12174-.03035-.01075-.00269c-.08235-.02051-.16536-.041-.248-.06128l-.00977-.00244-.12467-.0306-.00326-.00081c-.08431-.02059-.16829-.0411-.2526-.06144l-.01172-.00285c-.08268-.02-.165-.03988-.248-.05965l-.01009-.00245-.12207-.02913-.01107-.0026c-.08268-.0197-.167-.03964-.25-.05917l-.00814-.002-.12532-.02938-.00488-.00122q-.127-.02953-.25391-.059l-.00846-.002c-.083-.01921-.16667-.03841-.24968-.05746l-.01237-.00276-.123-.02808-.00749-.00171c-.08464-.01921-.16895-.03825-.25358-.05729l-.00651-.00147-.12761-.02856-.00162-.00041-.12566-.02791-.00651-.00147-.12467-.02758-.01009-.0022c-.08464-.01872-.16634-.03662-.251-.0551l-.00944-.002-.12435-.0271-.00879-.00179c-.08463-.01839-.16666-.03605-.25162-.0542l-.01172-.00252-.12468-.02661-.00325-.00074-.12793-.027-.002-.00049-.124-.02613-.01627-.00341c-.082-.01726-.16244-.034-.2448-.05111l-.01627-.00334-.12338-.02555-.00455-.0009c-.085-.01749-.17123-.03515-.25651-.05249l-.00879-.00179-.12695-.02579-.00163-.00033-.12793-.02572-.00488-.001-.126-.02523-.01042-.00212c-.08268-.01643-.16666-.03312-.24935-.04939l-.01562-.0031-.1237-.02417-.00586-.00113-.124-.02417-.00619-.00131-.12435-.024-.013-.00253c-.08268-.016-.16732-.03214-.25032-.04793l-.01237-.00236-.12045-.02287-.01888-.0035-.11979-.02254-.00195-.00041-.11979-.02238-.02344-.00439-.11881-.02205-.00977-.00179-.11784-.02173-.01172-.00212-.11946-.02189-.02116-.00383-.11947-.02172-.00911-.00171-.11426-.02059-.01888-.00342-.12142-.02173-.01237-.00211-.12142-.02165-.00488-.0009-.11817-.02075-.026-.00456-.11686-.0205-.01465-.00253-.1084-.01888-.02148-.00374-.11686-.0201-.02246-.00391-.11752-.0201-.01074-.00179-.112-.019-.02246-.00383-.11621-.01961-.02311-.00382-.10742-.018-.0153-.0026-.11524-.01913-.02962-.00488-.11361-.01864-.01823-.003-.10514-.01717-.02279-.00374-.11458-.01856-.02734-.00439-.11133-.01791-.01107-.00179-.11719-.01863-.02181-.0035-.11849-.01872-.01823-.00285-.1123-.01766-.013-.00195-.11849-.01847-.02441-.00375-.11915-.01839-.00976-.00146-.11426-.0175-.02051-.00309-.11718-.01782-.02377-.00358-.11328-.017-.00814-.00122-.11946-.01783-.02344-.0035-.11784-.01733-.01888-.00277-.11165-.01635-.01465-.00212-.11686-.017-.02865-.00407-.11784-.01692-.00488-.00074-.11849-.01692-.01953-.00277-.12142-.01709-.01563-.0022-.11914-.01668-.00781-.00106-.12077-.01676-.02278-.00318-.11979-.01635-.015-.00212-.11393-.01546-.015-.002-.11882-.016-.02507-.00325-.12011-.01612-.00521-.00065-.11556-.01522-.026-.00341-.11849-.01555-.01758-.00228-.11361-.01465-.01334-.00179-.12012-.01538-.02214-.00284-.12109-.0153-.01335-.00171-.11263-.01416-.01985-.00244-.11686-.01457-.02767-.00342-.11882-.01457-.001-.00016-.12044-.01465-.02441-.00293-.11882-.01432-.0192-.00228-.11263-.01343-.01433-.00171-.12239-.0144-.01953-.00228-.12338-.0144-.00781-.0009-.11979-.01375-.01563-.00179-.12044-.01376-.02376-.00268q-.123-.01392-.24675-.02759l-.02018-.00228-.12272-.01351-.01237-.0013-.12109-.01318-.00912-.001-.1237-.01326-.0205-.0022-.1237-.01318-.00586-.00057-.12207-.01278-.016-.00171-.12207-.01261-.02018-.00212c-.08366-.00854-.16634-.017-.25-.02539l-.01888-.00187-.1237-.01229-.0127-.0013-.11686-.01148-.01562-.00154-.12305-.012-.01888-.00179c-.084-.00813-.16764-.01611-.25163-.02392l-.01823-.00171-.12044-.01131-.02311-.00212-.11524-.01058-.00944-.00081-.12077-.011-.02636-.00236-.11979-.01074-.01433-.00122-.11133-.00985-.02278-.00195-.11784-.01026-.02572-.00219-.12044-.01026-.00684-.00065-.11588-.00976-.02767-.00228-.11654-.00969-.02571-.00211-.10938-.00887-.01465-.00122-.11816-.00953-.03-.00236-.11784-.00927-.01627-.0013-.10775-.00839-.02734-.00211-.11849-.009-.02214-.0017-.11784-.00879-.00781-.00065-.11947-.00879-.02864-.00212-.11524-.00838-.02929-.00212-.10157-.00716-.02246-.00163-.11816-.0083-.02767-.00187-.12012-.0083-.01139-.00073-.1123-.00757-.026-.00179-.11718-.00773-.0267-.00171-.11686-.00765-.00618-.00041-.12435-.00789-.02246-.00139-.12045-.00748-.02278-.00139-.11-.00675-.0166-.001-.11979-.00716-.02865-.00171-.12174-.00708-.00293-.00016-.12175-.007-.02343-.0013-.12045-.00676-.02181-.00122-.11849-.00643-.00781-.0004-.12272-.00659-.02572-.00131-.11914-.00618-.02083-.00106-.11426-.00586-.01432-.00065-.12305-.0061-.02409-.00122c-.082-.004-.16471-.0079-.24707-.01172l-.027-.00122-.11914-.00546-.02213-.001-.11-.00488-.01985-.0009-.11752-.00505-.03092-.0013-.11751-.00488-.02051-.00081-.10547-.00432-.027-.00106-.11686-.00455-.02865-.00114-.11425-.00432-.015-.00056-.11426-.00416-.03157-.00113-.11817-.00416-.0205-.00073-.11036-.00374-.02018-.00073-.11914-.00383-.02832-.001-.11947-.00375-.01985-.00057-.10515-.00317-.03027-.0009-.11621-.00341-.02832-.00074-.11491-.00317-.00879-.00025-.12142-.00317-.02832-.00073-.11914-.003-.02311-.00057-.10579-.00253-.02572-.00056-.11654-.00261-.0319-.00073-.11849-.00252-.014-.00025-.11263-.00228-.0254-.00049-.11914-.00219-.028-.00049-.10938-.00187-.0166-.00033-.11881-.00187-.03158-.00049-.12012-.00179-.01432-.00024-.11653-.00155-.01856-.00024-.1224-.00147-.02506-.00032-.124-.00131-.00749-.00008-.12142-.00122-.02083-.00016-.1237-.00106-.02083-.00008-.12338-.00089h-.0039l-.12435-.00074-.02832-.00016-.12142-.00057-.01563-.00008-.1136-.00033-.02279-.00008-.12077-.00024h-.02637L128,106.66667Z" style="fill:#d1c2ff"/><path d="M277.33333,21.33333l-.11556.00008h-.041l-.07422.00009-.0472.00008-.07064.00016-.04492.00008-.06934.00025-.05306.00016-.0625.00024-.05175.00017-.06511.00032-.05078.00025-.07259.00032-.03972.00024-.07519.00041-.0446.00033-.08626.00057-.02572.00016-.10026.00073-.01855.00016-.11817.001-.00716.00008-.10481.001-.04623.00041-.07226.00073-.04427.00049-.069.00073-.04947.00049-.06934.00081-.04785.00057-.06315.00081-.055.00066-.06477.00089-.04883.00065-.068.0009-.04752.00065-.0765.00114-.03809.00057-.0791.00122-.03841.00065c-.08008.00122-.15169.00244-.23177.00382l-.027.00049-.08887.00155-.03678.00073-.07747.00138-.04427.0009-.07455.00138-.03808.00082-.07748.00154-.04232.0009-.07421.00154-.04167.0009-.07194.00155-.04688.001-.07389.00163-.03874.0009-.084.002-.0332.00081-.09473.00228-.02116.00049-.1123.00277-.04688.00122-.07292.00187-.03613.001-.07845.00211-.042.00114-.0752.002-.04264.00114-.06966.00195-.04883.00146-.06934.002-.04622.00138-.06868.002-.04688.00139-.069.00211-.04785.00147-.06315.002-.05306.00171-.06771.0022-.04688.00146-.10384.00342-.041.00138-.08236.00277-.043.00147-.07324.00252-.0498.00179-.06185.00212-.05762.00211-.057.002-.06022.00219-.05306.002-.05892.00219-.05729.00212-.05989.00228-.05209.002-.06087.00236-.05827.00228-.05469.00212-.07487.003-.03711.00146-.07617.0031-.06771.00284-.08658.00358-.03744.00155-.07585.00326-.0511.00219-.06315.00269-.05892.0026-.05241.00228-.06152.00277-.05534.00244-.05664.0026-.0599.00269-.05111.00236-.068.00317-.04818.0022-.06282.003-.05241.00244-.06022.00293-.057.00269-.05338.00268-.05925.00285-.04687.00228-.1403.007-.03549.00179-.067.00342-.04753.00244-.05827.003-.05794.003-.05794.00309-.054.00285-.06022.00318-.05306.00284-.0638.00342-.04981.00269-.06054.00333-.05664.0031-.05827.00325-.05664.00309-.05534.00318-.06022.00342-.05567.00309-.10319.00594-.00716.00041-.11426.00667-.03711.0022-.07845.00464-.0472.00276-.06282.00375-.05762.0035-.05762.00349-.05761.0035-.05469.00342-.05794.00358-.0573.0035-.05859.00375-.05143.00317-.06185.00391-.05567.00358-.05761.00366-.05762.00374-.05469.00358-.0664.00432-.04818.00317-.111.00732-.04069.00269-.07162.0048-.05436.00366-.05957.00407-.05762.00391-.05566.00382-.054.00375-.06185.00431-.05631.00391-.054.00382-.05794.00407-.05762.00407-.05729.00407-.057.00415-.054.00382-.06185.00448-.054.004-.05729.00415-.05566.00407-.056.00423-.1084.00805-.05892.0044-.068.00513-.04135.00317-.07226.00545-.04167.00318-.06933.00537-.04265.00333-.0651.00505-.05241.00407-.05827.00456-.05469.00431-.05826.00464-.058.00464-.05338.00423-.0638.00512-.04851.004-.06608.00529-.05045.00415-.04948.00407-.23633.01953-.0485.00407-.06706.0057-.04362.00366-.068.00578-.04493.00382-.06412.00554-.05209.00447-.05566.0048-.05794.00505-.05957.00521-.04916.00423-.06347.00562-.04818.00423-.06511.00578-.05078.00455-.05924.00529-.06706.006-.0446.004-.2246.02051-.03939.00366-.07683.00708-.03711.0035-.07389.00684-.0498.00472-.06153.00578-.05761.00545-.05144.00488-.06087.00578-.054.00513-.06023.00577-.04948.0048-.06184.006-.055.00537-.05664.00553-.05436.00529-.05957.00586-.04753.00472c-.08951.00879-.17578.01742-.2653.02637l-.01562.00162-.08333.00839-.02767.00276-.07683.0079-.03678.00374-.06934.00708-.04329.00448-.068.007-.04493.00463-.0638.00668-.0485.005-.06543.00684-.04525.0048-.0664.00692-.04069.00431-.07357.00781-.02539.00269c-.125.01335-.25521.02742-.38021.0411l-.03125.00341-.06869.00749-.04524.005-.06608.00732-.04362.0048-.06934.00773-.04232.00472-.067.00757-.04493.00505-.06673.00748-.04427.005-.069.00789-.03548.004-.07715.00879-.03223.00374-.07584.00871-.054.00626-.056.00643-.10872.0127-.06218.00724-.04752.00554-.06576.00773-.0472.00561-.06022.00716-.05176.00611-.06055.00724-.05143.0061-.06185.00749-.04589.00545-.06771.00822-.0459.00554-.06152.00748-.05111.00619-.0638.00781-.04037.005-.071.00871-.03.00375c-.12467.01538-.25651.03182-.38086.04752l-.02441.003-.08041.01018-.029.00374-.07454.00944-.04.00513-.06966.00887-.03841.005-.07357.00944-.03614.00472-.07421.00952-.03516.00464-.07454.00969-.03679.0048-.07357.0096-.03222.00431-.07943.01042-.00781.001c-.10189.01351-.209.02775-.3112.0415l-.001.00008-.085.01148-.02669.00358-.07585.01025-.03678.005-.06934.00945-.04069.00561-.07129.00968-.03906.00538-.071.00976-.03679.00505-.07487.01041-.03645.00505-.06966.00968-.042.00578-.07291.01026-.014.002c-.13281.01855-.2666.03751-.39909.05648l-.0153.00219-.0804.01148-.03255.00472-.07227.01041-.03744.00538-.07128.01033-.03939.00578-.0752.0109-.027.004-.08463.01229-.02246.00334-.08561.01261-.02051.003-.08919.01319-.01042.00154c-.13249.01961-.26888.04-.401.06l-.01563.00236-.09277.01408-.01367.002-.09668.01473-.00912.00139-.09407.0144-.01628.00244-.08659.01335-.02344.00358-.08756.01351-.01693.0026-.09082.01408-.01432.00228-.2015.03149-.001.00017c-.1364.0214-.27442.04321-.41081.065l-.01335.00211-.08561.01376-.02279.00366-.08073.01294-.03092.005-.07552.01221-.03255.00529-.07422.012-.03874.00626-.07226.01188-.029.00472-.08235.01343-.02051.00342c-.20215.0332-.39844.06592-.60026.09993l-.02051.0035-.08463.01433-.02442.00407-.07845.01334-.03092.00529-.08073.01375-.02409.00407-.085.01457-.01986.00342-.0918.01587-.00553.00089-.09993.01726-.00619.00114q-.30908.05346-.61751.10823l-.01042.00187-.09961.01774-.0039.00065-.09636.01726-.01367.00244-.09147.01644-.01563.00276-.08886.016-.02019.00366-.08951.01619-.00847.00147c-.2054.03727-.405.07389-.61.112l-.016.00293-.07812.01456-.03353.00627-.0765.01424-.029.00537-.08073.01522-.02343.0044-.08855.01668-.012.00228-.09342.01766-.012.00227q-.41162.078-.82324.15837l-.00619.00122-.09733.019-.00846.00163-.096.01888-.00976.002c-.76433.15047-1.52051.3055-2.2806.46761l-.002.0004c-.41471.08846-.82617.178-1.23958.26986l-.00391.00081A149.472,149.472,0,0,0,129.49316,149.46859q-.02977.20934-.05761.4187c-.0114.07788-.02312.159-.03418.23714-.05729.41716-.11426.8444-.1683,1.26261q-.02637.204-.05208.40813l-.0026.02034q-.02735.21912-.05437.43864a42.46289,42.46289,0,0,0,36.88412,47.18921,42.80577,42.80577,0,0,0,47.83561-36.97217l.0651-.49927.02637-.20605c.01432-.09652.02865-.19474.04232-.29159a64.20671,64.20671,0,0,1,63.35579-54.80761h0a63.03608,63.03608,0,0,1,31.00424,7.98014q.12792.07141.25651.1416c.05957.03451.12109.06991.181.10417l.43619.24894a42.66746,42.66746,0,0,0,43.04916-73.679c-.12989-.07552-.25391-.14738-.38412-.22249l-.01725-.00993q-.25049-.14453-.5013-.28792l-.02735-.01563-.08593-.04923-.04818-.02751-.04655-.02645c-.249-.14192-.49479-.281-.74479-.42146-.07129-.03972-.14128-.07846-.21289-.11776-.11491-.06535-.22884-.12956-.3444-.19393-.082-.04574-.16244-.09025-.24447-.13582l-.00033-.00025-.09147-.05054-.015-.00838c-.1237-.06819-.25293-.13948-.3763-.20735l-.01693-.00928-.08757-.04793L349,39.622c-.1237-.06779-.25326-.13851-.37728-.206l-.0166-.009-.08691-.04736-.01661-.00895c-.12793-.06958-.25423-.13786-.38248-.207l-.00586-.00318a148.29938,148.29938,0,0,0-51.76009-16.60718l-.00228-.00024c-.389-.04948-.77735-.09733-1.16765-.1438l-.0013-.00016c-.15625-.01864-.30664-.0363-.46289-.05436l-.00846-.001-.11328-.0131-.00065-.00008c-.11719-.01351-.22917-.02629-.34668-.03947l-.00651-.00074-.10677-.012-.01791-.002-.10807-.012-.00033-.00008c-.1123-.01253-.2233-.02466-.33593-.03694l-.02507-.00277-.09668-.01042-.03157-.00342c-.11263-.01212-.21713-.02327-.32976-.03515l-.00325-.00041-.09961-.01042-.0332-.0035-.09473-.00992-.02669-.00277c-.10287-.01066-.19955-.02059-.30241-.03109l-.04265-.00431-.08886-.009-.03907-.00391-.09114-.00912-.02539-.00252c-.06869-.00692-.1364-.01359-.20508-.02034l-.01074-.00106-.10026-.00985-.02539-.00244L291.903,22.035l-.02441-.00236c-.10319-.00992-.209-.0201-.31217-.02986l-.03158-.00293-.09082-.00855-.03906-.00366-.09343-.00871-.02636-.00244c-.10319-.0096-.20313-.01872-.30632-.02808l-.04-.00358-.08724-.00789-.04427-.00391-.08691-.00781-.03744-.00334-.1735-.01521-.03483-.003-.08789-.00765-.0446-.00391-.08431-.00724-.04687-.004c-.09343-.008-.19076-.0162-.28451-.024l-.05045-.00423-.07976-.00659-.05436-.00448-.0817-.00675-.03972-.00318-.18457-.015-.02246-.00179-.08236-.00659-.05338-.00423-.0791-.00619-.057-.00447-.07487-.00586-.07129-.00554-.11295-.00862-.0739-.0057-.06673-.00505-.06771-.00512-.07-.00521-.06608-.00488c-.08887-.0066-.17937-.01327-.26823-.0197l-.056-.00407-.0752-.00537-.06217-.00439-.07292-.00521-.06771-.00472-.12077-.00846-.06608-.00456-.07552-.00521-.06087-.00415-.07422-.005-.05989-.00407-.07585-.005-.04883-.00325-.15495-.01018-.0472-.00309-.08235-.00529-.055-.00358-.07454-.00472-.06673-.00423-.12175-.00765-.06836-.00423-.07356-.00448-.0625-.00382-.07227-.0044-.06576-.004-.07161-.00423-.06185-.00366-.12825-.00757-.06674-.00382-.06836-.004-.06966-.00391-.06933-.004-.069-.00382-.06641-.00374L285.613,21.559l-.05664-.00309-.08269-.00448-.0612-.00325-.07519-.004-.06445-.00342-.08724-.00456-.04785-.00244-.13086-.00667-.05371-.00269-.083-.00415-.06055-.003-.07975-.0039-.05892-.00293-.12012-.0057-.05111-.00244-.09537-.00448-.058-.00268-.0817-.00375-.05925-.00268-.08724-.004-.0498-.0022-.13216-.00577-.04688-.002-.09082-.00391-.05794-.00244-.08431-.00358-.05306-.00219-.10059-.00407-.05794-.00236-.11523-.00464-.04427-.00171-.097-.00375-.04818-.00187-.0983-.00374-.043-.00163-.13542-.005-.03223-.00114-.10872-.00391-.04557-.00163-.096-.00333-.0485-.00171-.10287-.00342-.03743-.0013-.13314-.0044-.04818-.00154-.09375-.00293-.05208-.00163-.08952-.00277-.05111-.00154-.13053-.00391-.0153-.00049-.12793-.00366-.05111-.00138-.08886-.00253-.05274-.00146-.096-.00252-.04427-.00122-.13834-.0035-.02442-.00065-.11165-.00277-.05208-.00122-.0931-.0022-.04655-.00114-.11556-.0026-.02442-.00057-.13672-.00293-.04622-.001-.0931-.002-.05566-.00114-.09082-.00179-.04655-.0009-.13314-.00244-.03451-.00065-.1097-.002-.04915-.00082-.08984-.00146-.054-.0009-.09831-.00154-.04166-.00065-.13672-.002-.03516-.00049-.10579-.00138-.04623-.00065-.09668-.00122-.04883-.00057-.13118-.00155-.00553-.00008-.13868-.00146-.04622-.00041-.09733-.001-.04883-.0004-.09538-.00082-.04655-.0004-.13671-.00106-.0267-.00016-.11523-.00074-.0459-.00032-.09635-.00049-.04688-.00024-.10677-.00049-.03581-.00017-.139-.00048-.03484-.00009-.10351-.00024-.05046-.00016-.09668-.00008-.04524-.00009-.13933-.00008Z" style="fill:#d1c2ff"/><path d="M108.11249,204.022a21.50429,21.50429,0,0,0,2.71064-3.31588l.21423-.32254a21.572,21.572,0,0,0-5.86919-29.735,21.09588,21.09588,0,0,0-26.76659,2.51665,21.32031,21.32031,0,0,0-2.35167,2.796q-.17781.25722-.35246.51531l-.0221.03269-.04673.06928-.00023.00023-.0553.08235-.001.00132-.05191.07746-.00535.008-.10335.15491-.0145.02186-.03344.05035-.02014.0305-.0275.04155-.04322.06543-.01922.02911-.02739.04167-.02152.0328-.025.03809-.04465.06813-.00944.01451-.0469.07187-.00126.002c-.11895.18258-.23507.36293-.35183.54632a21.09541,21.09541,0,0,0,6.41817,28.89183,21.58636,21.58636,0,0,0,26.9688-2.82682Zm65.89461,53.52438.0683-.06842.02181-.02192.04662-.04684.02572-.02584.04333-.04368.02566-.02589.04328-.04373.02606-.02642.04662-.0473.02077-.02112.06779-.06894.00794-.00817.06-.06111.0225-.02308.04391-.04494.0275-.02819.04109-.04224.02653-.02734.04195-.04321.0256-.02641.04823-.04984.01876-.01945.06623-.06865.01715-.01784.05012-.05208.0225-.02353.04483-.04678.0252-.02636.04091-.04287.027-.02825.03977-.04172.02779-.02929.04707-.04961.01773-.01864.06577-.06957.0179-.01894.04827-.05115.02435-.02584.04172-.04437.02537-.0271.04276-.04563.02313-.02475.04448-.04759.022-.02359.05351-.05743.0122-.01312.064-.069.02371-.02555.04177-.04523.02521-.02727.04085-.04431.02538-.02756.04212-.04581.02227-.02423.04535-.04948.02072-.02256c.04333-.04736.08545-.09363.12866-.1411l.02147-.02365.04316-.04753.02583-.02849.03695-.04085.02866-.03165.03751-.04167.026-.02883.04385-.04868.01939-.02158.06416-.07164.00564-.00633.05783-.06462.02233-.02509.041-.046.02469-.02779.04-.04512.02446-.02756.04022-.0454.02353-.02665.044-.04989.01962-.02227.06289-.07153.00841-.00955.054-.06157.02124-.02434.04229-.0484.02342-.02675.03919-.04506.02463-.02831.03982-.04581.02331-.02687.044-.05087.01836-.02124.06186-.07164.01467-.01709.047-.05472.0236-.02751.03827-.0446.02462-.02877.03908-.04563.02348-.02762.04091-.04794.02072-.0244.05115-.06025.01053-.01248.06163-.0728.01583-.0187.04546-.054.02106-.025.04166-.04949.02141-.02555.0397-.0473.02285-.02733.04212-.05041.01865-.02233.05754-.06905.00334-.004.06053-.073.02-.02417.04-.04839.024-.029.03786-.04592.02268-.0275.03884-.04725.02238-.02733.04023-.04909.02031-.0248.04909-.06.026-.032.04361-.05352.02187-.02693.038-.04672.02365-.0293.03729-.046.02262-.028.038-.04713.02175-.02705.04518-.05611.01369-.01714.05962-.07435.01185-.01485.04719-.05915.02043-.02561.03821-.04788.02463-.03107.034-.04287.02462-.03108.03643-.046.02233-.02832.04569-.05789.01174-.015.05852-.07452.01536-.01962.04351-.05547.0202-.02584.03774-.04834.02256-.029.03625-.04661.02279-.02923.0362-.04667.02169-.028.048-.062.009-.01168.05869-.07619.0118-.01537.04517-.05886.0198-.02578.03775-.04926.02215-.029.03643-.04782.02031-.02664.04017-.05282.01749-.023.05478-.07228.00179-.00236.05708-.0755.017-.02255.04057-.05381.01974-.0263.03608-.04816.02233-.02969.03568-.04765.02106-.0282.03832-.05144.0179-.024.11261-.15163.0164-.02227.03913-.05294.02049-.02785.03533-.048.02244-.0305.03447-.047.02043-.02791.04143-.05663.014-.01916.05651-.07745.001-.00133.05306-.07308.019-.02612.03689-.05105.01991-.0275.03567-.04949.01945-.027.03931-.05461.01582-.02192.043-.06008.01249-.01743.05524-.07734.00651-.00915.048-.0675.01571-.022.03953-.05576.0168-.02371.038-.05363.01813-.02561.04-.05668.0137-.01945.0488-.06951.00586-.00841.055-.07849.00984-.0141.04333-.06209.01795-.02578.03643-.05242.0183-.02635.03585-.05162.01841-.0267.039-.05628.01427-.02072.052-.0755.00132-.00189.05392-.07867.01272-.01858.03982-.05824.01853-.02705.0347-.05092.01922-.0282.03389-.04989.01991-.02935.03551-.05242.01657-.0244.0519-.077.00041-.00052.05254-.0782.01461-.02176.03677-.05484.02-.02975.0324-.04862.02008-.0301.03274-.0492.01917-.02871.03539-.05346.01674-.02515.05041-.07619.01134-.0172.04022-.06106.01721-.02607.03481-.05311.01824-.02779.03292-.05041.01933-.02947.03292-.0504.01853-.02843.04022-.062.00961-.01479.05162-.07958.00869-.01341.04224-.06548.01553-.02406.03476-.05409.01767-.02745.03452-.05386.01652-.02584.03516-.05507.01548-.02411.04367-.06865.00627-.00984.05116-.0805.00817-.013.04161-.06566.0153-.02428.03436-.0545.01772-.02831.03286-.0523.01669-.02659.03406-.05432.01664-.02665.04425-.07083.0042-.00685.0496-.07976.0122-.01956.03781-.06117.01479-.02388.03337-.0541.018-.029.03291-.05363.0156-.02538.03746-.061.011-.018c.03234-.05283.06531-.10686.09748-.15986l.01617-.02664.032-.05271.01773-.02924.03153-.05225.017-.02814.03274-.05426.01519-.02532.0366-.061.01157-.01928.09552-.16.01473-.02486.033-.05541.01727-.02924.03-.05058.01761-.02981.03228-.05472.01462-.025.04022-.06842.00633-.0107c.03234-.05513.06428-.10974.09627-.16475l.0095-.01628.0374-.06434.01266-.02187.03493-.06036.01283-.02215.03689-.06394.00978-.01691.04322-.0751.00385-.00673.04834-.08425.00184-.00322.044-.07711.011-.01933.03585-.06313.01215-.02147.03366-.05932.01381-.0244.03545-.06261.0103-.01824.09253-.16481.00788-.01421.037-.06612.01381-.02486.0324-.05829.013-.02337.03349-.06042.01248-.0225.03591-.06491.00915-.01663c.03079-.05576.06117-.111.09179-.16694l.00564-.01047.03826-.06992.01255-.0229.03239-.05967.0133-.02446.03124-.0576.01376-.02538.03458-.06393.00973-.0179.08861-.165.01031-.01917.03354-.06266.01324-.025.03153-.05915.01209-.0229.03309-.06221.0111-.02112.03919-.07406.00386-.00719.04442-.08448.00552-.01059.03787-.07216.01185-.02267.03033-.05806.015-.02877.02917-.056.01387-.02665.02941-.05668.01369-.02635.03585-.06957.00616-.0118.04345-.08453.00391-.0076.03763-.07331.01324-.0259.02877-.05639.015-.02923.0282-.05559.01324-.0259.03113-.0614.0111-.022.04063-.08044.00063-.00121.04282-.08517.00633-.01254.03562-.07118.01058-.02118.02987-.0599.014-.02791.028-.05628.0137-.02774.02929-.0591.01162-.02336c.028-.05668.05478-.111.08263-.1678l.00662-.01364.034-.06957.0103-.021.03079-.06313.01179-.02411.02964-.061.01076-.02239.03372-.0694.00668-.014c.0267-.05524.0553-.11457.08165-.1697l.00742-.01559.03355-.07.00881-.01836.03142-.06618.00932-.01968.03257-.06871.00794-.01645.03568-.07573.00414-.00875c.02705-.0572.05363-.11394.08051-.17131l.008-.01726.0309-.06624.0114-.02451.02693-.05777.01335-.029.028-.06036.01007-.0217.03459-.075.004-.00891.04022-.0873.001-.00224.03677-.08062.00984-.02147.02929-.06416.01036-.02279.028-.0618.01111-.02434.02969-.0656.00829-.01842.03723-.08292.00058-.00126.03976-.08868.00115-.00253.03608-.08085.00909-.02037.02872-.06474.01007-.02262.027-.06134.01174-.02647.0278-.06289.00909-.02084.03671-.08344.00041-.001.03815-.08707.00575-.01358.03021-.06923.01163-.02658.02566-.0595.01128-.026.02641-.06106.01007-.02353.03062-.07113.00546-.01294.07424-.17344.006-.01427.03021-.07107.00909-.02175.0267-.06307.01059-.02486.02538-.06071.01105-.02624.02935-.07009.00546-.013.07211-.17327.00811-.0195.02647-.06376.01151-.02808.02417-.0587.01133-.02779.02371-.05778.01157-.028.02687-.06612.00771-.01853.03436-.08488.00713-.01726.02711-.06727.01122-.02791.02319-.05737.01237-.0309.02279-.05686.0107-.02658.0244-.06123.01053-.0263.0309-.07774.00207-.00529.03476-.0877.00535-.01353.02889-.07331.00829-.02117.02434-.06221.01128-.02877.02353-.06025.00961-.02492.0259-.06617.00742-.01928c.022-.05674.04534-.11716.067-.17373l.00616-.01594.02693-.0702.00851-.02233.02463-.06468.00944-.02463.02411-.06335.00863-.02314.02452-.06479.00874-.023c.02222-.05881.04333-.115.0652-.17373l.005-.013.02739-.07343.00789-.02158.0237-.06376.00933-.0252.02434-.06589.00759-.02049.02676-.07267.00518-.01416.0641-.17528.00708-.01962.02371-.0656.00984-.027.02158-.05991.01024-.02842.02181-.0606.00892-.02515.02486-.06951.00622-.01726.03107-.0877.00161-.00437.02918-.08223.007-.02015.02371-.067.0088-.02526.02077-.05933.01065-.03032.02095-.06008.00886-.02566.02681-.07723.00288-.00817.0309-.08925.00317-.00927.02624-.07642.0084-.02474.02146-.06278.00863-.02544.0217-.06347.00834-.0248.02256-.06629.00708-.021.02676-.07959.00259-.00754.03009-.08959.00288-.0091.02566-.07653.00777-.02354.02152-.065.00789-.02388.02146-.06508.00754-.02285.02313-.07032.00581-.01766.05743-.176.00628-.0195.02134-.06612.00967-.02993.0187-.05817.00915-.0286.01951-.06106.00869-.02676.023-.07233.00414-.01289.0564-.17839.00541-.01761.0214-.06836.0084-.02658.01963-.06278.00794-.02613.0191-.06146.00846-.027.02262-.0736.00374-.01237c.01847-.05979.03631-.11791.05443-.17758l.00645-.02118.01974-.065.0088-.02941.0183-.06042.00788-.02618.01888-.06307.008-.02653.02186-.07343.0038-.01277.02624-.08793.00518-.01784.02124-.07222.0061-.0206.01927-.06589.00794-.027.01825-.06232.00788-.02711.0191-.0656.00605-.02112.05156-.17907.00247-.00858.02262-.07958.0054-.019.01963-.06923.007-.02434.01864-.06606.00628-.02227.02025-.07228.00449-.01622c.01634-.05824.03372-.121.04972-.17908l.00443-.01583.01991-.07216.00685-.02491.01738-.06319.00719-.02687.01744-.06359.007-.02612.01743-.06451.00645-.02394.04787-.17816.00409-.01571.01922-.07193.00656-.02474.0168-.06376.00725-.02728.01686-.06462.006-.023.01933-.07412.00391-.015c.01525-.05841.03079-.11883.0457-.17712l.00661-.02561.01646-.0641.00668-.02647.016-.06273.00708-.02745.01617-.06439.0061-.02428.01939-.07682.00282-.011.02268-.091.00172-.007.01974-.0797.00673-.02733.01531-.062.0069-.02808.01485-.06019.00754-.03113.01513-.06267.00593-.024.02043-.08454.0008-.00333.02216-.09248.0015-.00587.01922-.08113.00592-.02446.01554-.06549.00616-.02606.0149-.06336.00616-.02653.01548-.06646.00541-.02314.01956-.08447.00086-.00374.02089-.09006.00415-.018.01634-.07159.00541-.02405.01484-.0648.00628-.02779.01387-.06117.00656-.02935.0153-.06848.00415-.01841.03982-.17977.00506-.02256.0141-.06462.00673-.03055.01324-.06043.00627-.02963.01323-.06042.0061-.02843.015-.06974.00408-.01894.019-.09005.00075-.00294.01778-.08488.00569-.02652.01324-.06273.00639-.0309.012-.058.00651-.03124.01248-.05979.00639-.0309.0137-.06687.00408-.02031.01807-.08874.0034-.01686.015-.07389.00495-.02451.01248-.06209.00668-.03292.01162-.05881.00593-.03.01237-.0622.00524-.02653.01467-.07556.00282-.01375.01692-.08758.00581-.0301.0114-.059.00621-.03245.01093-.0572.00662-.03436.01048-.05489.0065-.03447.01047-.05582.00627-.03378.01439-.07722.00173-.00933.01657-.08885.005-.02721.01134-.06186.0061-.0335.00978-.05374.00662-.03712.01-.05541.00592-.03229.01076-.06013.00513-.02941c.01064-.05932.02111-.11882.03141-.178l.004-.02267.01157-.06623.00524-.03021.01007-.05807.00581-.03424.00972-.057.00535-.03148.01019-.05979.00529-.03107.01479-.08787.00069-.00392.014-.08407.00466-.02894.01013-.06123.00529-.032.00921-.05616.00575-.03522.00932-.05743.0049-.031.0111-.06854.00311-.01991.01415-.08988.00248-.015.01157-.07314.00494-.03188.009-.05864.00478-.03067.00926-.06025.00495-.03142.009-.06.00455-.02952.01024-.06755.0034-.02239.01335-.08931.00241-.01692.01053-.07095.00484-.03245.00829-.05663.0054-.03648.00749-.05191.00535-.03746.00811-.05679.00472-.03211.00932-.06618.00322-.023.01232-.08758.00391-.02785.0084-.06065.00507-.03683.00725-.0526.005-.036.00736-.05524.00489-.03516.0084-.062.00323-.02486.01064-.08.00161-.01128.01157-.08833.00357-.02866.00782-.05984.00438-.0343.00742-.057.00437-.03383.00679-.0549.00455-.0355.0076-.061.00351-.0278.01105-.0893.0004-.00328.01041-.08488.004-.0328.00645-.05525.00489-.0393.006-.05156.0042-.03539.00679-.05766.00386-.03251.00823-.07.00184-.0175c.00391-.032.00685-.05944.01047-.09126l.00115-.0099.00933-.08137.00247-.0233.00725-.06411.00374-.034.006-.05524.00408-.03688.00576-.05179.004-.03793.006-.05656.00368-.03315.00915-.0866.00271-.0263.00638-.06267.00363-.03412.00552-.05524.00409-.03919.00489-.049.00414-.04051.00507-.05064.00391-.0389.00558-.05887.00305-.02964.00823-.08476.00391-.0412.00455-.04886.00368-.04005.00472-.0496.00363-.03965.00471-.05144.00357-.03879.00461-.05064.00345-.0389.00627-.0706.00167-.01721.00771-.0885.00271-.03136.00471-.05651.00328-.03908.00432-.05.00351-.04115.00426-.05052.003-.03706.0046-.05708.00271-.03321.00587-.07377.00276-.03591.00529-.06514.00294-.038.00409-.05346.00264-.03649.00415-.05248.00287-.039.00374-.0515.00288-.03856.0038-.05375.00253-.03521.00627-.08672.00184-.02808.00426-.0602.00276-.04051.00323-.04925.00287-.03994.00305-.04943.00282-.0423.00311-.048.00276-.04005.00334-.05467.00224-.035.00541-.08574.00208-.0366.0031-.05076.00277-.04511.00264-.04477.00259-.04437.00236-.04459.00248-.04356.0027-.0484.00236-.04137.00276-.04788.00225-.04379.00425-.08137.002-.0385.0027-.05162.00225-.04379.00218-.04292.00225-.0484.00184-.03821.00265-.05213.00172-.03695.0023-.04926.00185-.04051.00425-.09886.00144-.03171.00213-.05035.00179-.0378.00184-.04834.00184-.04235.00184-.047.0015-.0404.00195-.04822.00161-.0412.00173-.04845.00144-.03539.00339-.09558.00133-.03919.00167-.04713.00144-.0423.00143-.0469.00144-.04275.00133-.04425.00126-.04523.00156-.04679.00115-.03982.00138-.04787.00109-.03758.00242-.09656.001-.03717.00133-.053.00092-.03269.00126-.05536.00075-.03377.00127-.054.00063-.03343.00121-.05312.00069-.03706c.00138-.06491.00242-.12878.00351-.19352l.00058-.02658.00074-.05312.00058-.03579.00092-.0534.00052-.034.00069-.05409c.00011-.01.00029-.02227.00023-.032l.00075-.05633.00051-.03171c.00064-.06474.00133-.13034.00167-.1949l.00029-.02872.00035-.05674.00034-.03.00035-.05766.00017-.03021.00011-.05789.00023-.02509.00023-.06329-.00017-.01076q.00044-.11005.00035-.22017c-.00006-.00788-.00018-.0126,0-.02072l-.00018-.06c-.00011-.00794,0-.01979-.00005-.02767-.00018-.02043-.00023-.03844-.00012-.059-.00017-.00984-.00011-.019-.00006-.02906-.00023-.01865-.0004-.03816-.00034-.057l-.00029-.02883c.00012-.0206,0-.04051-.00017-.06094l-.00012-.00334c-.00017-.05127-.00057-.1037-.00109-.15485l-.00017-.00616-.00035-.05559-.0004-.03539-.00063-.05311-.00035-.03165-.00069-.05824-.0004-.02756-.00069-.06054-.00029-.02238-.00086-.06439-.00018-.0034c-.00069-.04949-.00155-.10329-.00259-.15266V211.155l-.0012-.06152-.00052-.02768-.001-.05484-.00081-.034-.001-.05576-.00081-.02842-.00115-.061-.0004-.01514-.00559-.22471-.00034-.01047-.00155-.06278-.00081-.02613-.00161-.05961-.00086-.02711-.00167-.05783-.001-.03188-.00178-.057-.00069-.02187-.007-.21188-.00069-.01864-.00231-.06445-.00092-.02164-.00236-.06129-.0008-.0275-.00253-.05962-.00092-.02578-.00242-.06088-.00075-.01916c-.00293-.07337-.0061-.14421-.00938-.21746l-.00046-.01473-.00276-.06215-.00127-.02751-.00287-.06-.0011-.02411-.003-.06284-.001-.02221-.00328-.065-.00023-.00529c-.00362-.075-.00748-.14973-.01151-.22466l-.0012-.02054-.0034-.0637-.00121-.02331-.00339-.06-.00161-.02831-.00328-.06036-.00115-.02095c-.00444-.07486-.00869-.1491-.01324-.22408l-.00046-.006-.00391-.06376-.00144-.02354-.0038-.06042-.00167-.02745-.004-.06019-.00138-.023-.0042-.065-.00115-.01451c-.00495-.07676-.01013-.15375-.01565-.23017l-.00023-.00392-.00449-.06617-.00161-.02141-.00472-.06549-.00138-.01887-.00478-.06646-.00149-.01761-.00512-.06957-.00024-.00438c-.00615-.07981-.01237-.16106-.0187-.24105l.00006-.0004-.00575-.07113-.0011-.01582-.00535-.06658-.00178-.01974-.00564-.06825-.00064-.0103c-.011-.13258-.022-.26142-.03395-.394l-.001-.01156-.00645-.07136-.00121-.01364-.00627-.0698-.0015-.01439c-.00966-.10542-.0195-.20963-.02963-.315l-.00006-.00144-.00742-.07556-.001-.00926-.00731-.07452-.00075-.00811c-.016-.15963-.03251-.31978-.04954-.47952l-.00092-.00875-.00818-.07584-.00069-.00484c-.01421-.13252-.02923-.26585-.0443-.39832l-.00093-.00875-.00845-.07245-.00144-.01156-.00829-.07228-.00132-.01053c-.01543-.13235-.03154-.26355-.04782-.39585l-.00069-.00667-.009-.07257-.00167-.01317-.00926-.07326-.00075-.00489c-.01646-.13062-.03355-.2628-.05081-.39332l-.0023-.01611-.00909-.068-.0019-.01478-.00967-.0709-.00115-.009c-.01819-.13373-.03614-.264-.05519-.39769l-.00052-.00374-.0111-.07693-.00081-.00587q-.03461-.2411-.07089-.482l-.00063-.00339-.01192-.0782-.00057-.00334c-.08241-.54092-.17131-1.07821-.26776-1.61706l-.00034-.00127a63.68946,63.68946,0,0,0-8.34712-22.01462A21.33341,21.33341,0,1,0,146.995,201.20355a21.24692,21.24692,0,0,1-3.15775,26.1729h0a21.35745,21.35745,0,0,1-30.16989,0l-.43118-.44315a21.69038,21.69038,0,0,0-30.37014-.62424c-.14525.13742-.28686.27524-.42727.41565a20.977,20.977,0,0,0-.799,28.88572c.20267.22017.40367.43544.60986.65359l.00046.00046c.02273.02365.04517.04748.06767.07136l.01421.01467.0419.0442.041.04281.00224.0027c.21338.22351.42508.44258.6422.66384l.00328.00328.06663.068.01117.01117.06.06094.02054.02054.052.05288.02929.02929.04466.04512.04206.04206.03252.033.076.076a64,64,0,0,0,90.50967,0Z" style="fill:#f1ecff"/><path d="M277.33333,64l-.13216.00008h-.02376l-.12891.00033H277.029q-.436.00122-.87077.006h-.01139q-.38184.00428-.76335.01107a42.38765,42.38765,0,0,0-41.43066,42.88289,42.94554,42.94554,0,0,0,42.89193,42.435c.07747,0,.1569-.00016.23437-.00065l.25423-.00139h0a21.35013,21.35013,0,0,1,6.16146,41.78679l-.14062.04231-.07748.02165-.21907.06169a42.95344,42.95344,0,0,0-29.75879,52.68286,42.35189,42.35189,0,0,0,51.6237,29.80233c.25227-.0673.49446-.1329.74576-.202l.02214-.00626q.5664-.15578,1.13053-.31763l.00424-.00122q.39013-.11195.778-.22657l.07585-.02286.16959-.04989a105.93449,105.93449,0,0,0,18.18783-7.3138l.00163-.00081c.11946-.06153.235-.1211.35449-.183l.00553-.00293c.07162-.03719.14-.07283.21159-.11019l.0026-.00138c.11947-.06226.23373-.12207.35254-.18473l.00814-.0044c.11328-.05949.22982-.12126.34278-.18115l.0179-.00952c.11263-.06.22754-.12134.34017-.18164l.01172-.00627.20149-.1084.02214-.012.111-.0599.02311-.01253c.06478-.03516.12761-.06917.19239-.10449l.03027-.01636.10449-.05705.02572-.014.0625-.03418.01042-.00578.12434-.068.01791-.01c.04134-.02262.07747-.0424.11849-.0651l.01595-.00871.06706-.037.00325-.00179.12923-.07145.01693-.00936.19759-.10978.02214-.01245.10416-.05811.03255-.01814.19239-.10775.0192-.01091.11231-.06323.02051-.01155.06445-.03646.00228-.0013.1237-.06991.0319-.01815.10514-.05965.02214-.01253.0625-.03573.01985-.01115.10808-.06185.02832-.01619.098-.05615.0319-.01823.05534-.03174.04427-.02547.08138-.047.04036-.02327.05534-.03207.07194-.0415.05306-.03076.03776-.02189.0918-.05347.03288-.019.05664-.033.04134-.02425.08528-.04973.03614-.02124.09342-.05477.03093-.01806.06087-.03573.02083-.01237.10091-.05941.03939-.02327.06869-.04045.05566-.033.05273-.03125.043-.02547.08041-.04793.04427-.02637.05827-.03467.0651-.039.05143-.0306.0485-.02905.07227-.04329.04329-.026.05339-.03223.07292-.04378.04687-.0284.05306-.032.0625-.03776.05892-.03564.04264-.0258.08073-.049.042-.02547.05273-.03215.05078-.031.068-.04143.04687-.0288.06152-.0376.06055-.037.04818-.02954.05436-.03345.07129-.044.04167-.02548.06119-.03784.05632-.03491.05859-.03613.03906-.02426.08138-.05053.04037-.02507.06315-.0393.04362-.0271.07227-.04517.03678-.02295.083-.052.03711-.02328.05859-.03678.0446-.02808.07454-.04671.03809-.02409.08333-.05249.03385-.0214.06478-.04093.03418-.02173.083-.05274.03646-.02319.08333-.05306.02572-.01619.07324-.04688.03158-.0201.08626-.05518.0319-.0205.07-.04476.04557-.02938.0651-.04183.03842-.02474.08333-.05355.03157-.02051.06967-.04508.02734-.01766.08561-.05542.03255-.02124.08757-.05689.026-.01692.07357-.04794.02734-.01774.08822-.05786.02864-.01863.08724-.05713.02572-.017.07585-.04972.02408-.01587.09017-.05933.02735-.01815.083-.05485.02311-.01522.0804-.05322.02962-.01961.08822-.05868.02376-.01587.084-.0559.01367-.009.09114-.06095.028-.01864.08756-.05867.026-.0175.08105-.05428.0153-.01042.09505-.0638.02018-.01359.097-.06559.00619-.00423.09114-.06161.02018-.01359.0931-.06315.01953-.01335.0944-.06429.0127-.00854.08659-.05908.02148-.01465.09115-.06242.02311-.01571.09017-.06193.00488-.00333.0944-.06494.02312-.01579.09212-.06364.01725-.01172.08691-.06006.014-.00985.09505-.06575.01856-.01294.09375-.0651.01693-.01172.08268-.05762.0192-.01343.08789-.06144.0293-.02026.08887-.06242.01237-.00871.08366-.05876.02409-.01676.08886-.06258.02311-.0162.08757-.06193.00749-.00537.0944-.06673.01953-.01375.09342-.06633.01465-.0105.09571-.06795.00325-.0022.09473-.0677.02181-.01555.09342-.06681.01009-.00716.09017-.06454.01367-.00993.09473-.06819.01563-.01123.09668-.06966.00781-.00554.09147-.06616.01432-.01034.09505-.06876.0153-.01123c.06674-.04826.12761-.09261.194-.14095l.01563-.01148c.03125-.02254.0638-.04655.09473-.06917l.01367-.00985.09375-.0686.00521-.00374.09635-.07072.01562-.01148.09571-.07039.00846-.00635.2002-.14771.01074-.00813.099-.07333.00358-.00252.0957-.07113.01139-.00838.09668-.07226.0101-.00741c.06575-.04907.13541-.10107.20084-.15031l.00619-.00456.099-.0743.00944-.007.19825-.1495.01041-.008.09929-.075.00228-.00171.09733-.07381.00781-.006.09733-.07389.00977-.00741.09928-.07576.00163-.00123c.03483-.02653.06673-.05086.10123-.07747l.00261-.002c.03288-.02491.06738-.0516.09993-.0765l.00782-.00594c.06738-.05168.13346-.10262.20084-.15438l.00488-.00374.09929-.07683.00683-.00512c.06706-.05184.13477-.10433.2015-.15634l.00326-.00252.10189-.07926.001-.00057c.069-.05379.13444-.1049.20313-.15877l.00586-.00464c.10351-.0809.2028-.159.30566-.24024l.00228-.00179c.10319-.0813.20378-.16081.30631-.24251l.00261-.00212c.06868-.05444.13314-.10579.2015-.1604l.00423-.00333c.20508-.16374.4069-.32642.61067-.49162l.00131-.00114c.10188-.0826.20247-.16431.304-.24732l.00131-.00122c.068-.05533.13281-.10848.20052-.164l.00325-.00276.09961-.08187.00065-.00065c.27018-.22225.53776-.44483.80567-.66976l.00162-.00147c.26791-.22493.53288-.4497.79851-.67724l.00162-.00114a106.89849,106.89849,0,0,0,29.95834-42.04444l.001-.00211c.04883-.12411.09668-.24675.14486-.3711l.00065-.00114c.04818-.12426.0957-.24747.14356-.372l.00065-.00163c.0319-.08309.06282-.16317.0944-.24634l.0013-.00366c.04753-.12468.09408-.24732.14128-.37224l.00032-.001c.0472-.125.09375-.2487.1403-.37386l.00065-.00179.09245-.24935.00033-.00017c.06152-.16707.12239-.33276.18359-.50024l.0013-.00431c.0306-.08374.0586-.16105.08887-.24488l.0026-.007.08887-.24641.001-.00277.04329-.1215.0026-.00741c.03-.084.0586-.16382.08822-.24788l.00033-.00049.04329-.12321.00228-.00627c.02962-.08414.057-.16154.08626-.24576l.002-.00554c.015-.04215.02832-.08073.043-.1228l.00131-.00358.08528-.246.00293-.0083.04232-.12264.00033-.00082.04329-.12573v-.00057l.04134-.12028.00456-.01327c.04232-.1241.08431-.2478.126-.37215l.0013-.00325c.02832-.08464.055-.16374.08333-.24854l.00228-.00635.04069-.12215.002-.00618.08138-.245.00326-.01041c.01334-.0398.027-.08187.04-.12167l.001-.003.08236-.25065.0013-.00472c.04167-.12752.08106-.2491.12207-.37687l.00261-.00789c.02571-.07984.05338-.16659.0791-.24659l.0026-.008c.04069-.12793.08008-.252.12045-.38013l.00032-.00122.03971-.12663.001-.00276.0791-.25375.00065-.00195c.03972-.12834.07813-.25277.11752-.38127l.002-.00643c.02637-.08569.05078-.16577.07682-.25146l.001-.00366c.01237-.0402.02474-.08211.03711-.12232l.00358-.012c.02441-.08049.04883-.162.07292-.24243l.00423-.01376.0358-.12052.00228-.00724c.02409-.08057.04916-.16553.07292-.24618l.00423-.01367c.01172-.04036.02377-.0813.03581-.12166l.001-.0035c.02441-.08342.04882-.1661.07291-.2496l.00391-.01277.07161-.247.00228-.00814.03548-.12345.00228-.00741c.02377-.08358.04851-.16935.07227-.253l.00065-.00285.03613-.127.001-.00391c.02376-.08374.04687-.16626.07031-.25016l.00391-.01294.03418-.12248.001-.00407c.02344-.0839.04655-.1665.06966-.25049l.00359-.0135c.01139-.04069.02246-.08073.03352-.12142l.00163-.00611.03321-.12125.002-.00676.03353-.12288.00293-.0114.06673-.24585.00358-.01375.0319-.11881.00391-.0149q.03271-.12219.0651-.24454l.00358-.01351c.01107-.04077.02149-.08089.03223-.12175l.00228-.00862.06575-.25017.00261-.01033q.0332-.12671.06575-.25334l.0013-.005.03256-.12582.00195-.00781c.02116-.08187.04329-.16862.06413-.25049l.0026-.01131c.00977-.03817.02051-.07983.02995-.11808l.00553-.02173c.02018-.07918.04037-.15967.06022-.23893l.00456-.01848.02962-.11849.00326-.01342.03027-.12175.00033-.0013.03027-.12313.00358-.01465.03027-.12337.00131-.00456.0306-.12573.001-.00391.0293-.1206.00488-.02043c.01986-.08227.03939-.163.05892-.24528l.00293-.01147c.00977-.04118.01888-.07992.029-.1211l.00358-.015c.01953-.08236.03907-.16561.0586-.24813l.00293-.012c.00879-.0385.01953-.08358.02864-.12207l.00293-.01376c.01953-.08244.03809-.16219.057-.24479l.00456-.01888.02766-.12077.00228-.01009c.00912-.03849.01823-.07837.027-.11694l.00261-.012c.00944-.04126.01822-.07911.02734-.12053l.00391-.017.028-.12264.00065-.0035.028-.12492.00162-.00716c.00944-.04134.01856-.08211.02767-.12353l.00358-.01506c.01823-.08276.03646-.164.05469-.2469l.00358-.01636.02669-.1215.00261-.012c.01823-.08292.03646-.16731.05436-.25032l.00326-.01384.02636-.12312.00228-.0105c.00912-.04159.01791-.08317.02669-.12468l.00066-.002.02636-.12443.00326-.016c.00911-.04159.01758-.0826.02637-.12419l.00065-.00342.02571-.12109.00293-.01383.02507-.12012.00358-.01791.05241-.25252.00162-.00757.026-.12711.00162-.00855.05176-.2548.00228-.01155.02539-.1259.00163-.00822.02474-.1241.001-.0057c.00847-.04175.01661-.08268.02474-.12443l.00293-.01514c.00847-.04175.01628-.08178.02442-.12353l.002-.009.02409-.12394.001-.00488.02376-.12272.00391-.01994c.01627-.08366.0319-.16577.04817-.24951l.00228-.01286.02344-.1224.00293-.0166c.016-.08374.03157-.1665.0472-.25032l.0026-.013.02279-.12329.00293-.01506c.01562-.0839.03027-.16455.0459-.24854l.00358-.02034c.00781-.042.01465-.08.02213-.122l.002-.0092c.00683-.03922.01432-.07975.02148-.119l.00228-.01262c.00749-.04207.01432-.08089.02214-.123l.0026-.01555.02213-.124.002-.01074.02018-.11459.00326-.01847c.00716-.03931.01432-.08016.02115-.11938l.00359-.02043c.00716-.04207.014-.08089.02148-.123v-.00081l.02083-.12052.00391-.02189.02018-.11809.00358-.02156c.00651-.03654.01367-.07959.01986-.11613l.0013-.00725c.00651-.0393.01367-.08121.02051-.1206l.00391-.02328.0192-.11621.00423-.02392.01888-.11467.0013-.0061.01986-.12134.00391-.02368c.00683-.04224.01269-.07812.01985-.12036l.00163-.01148.01888-.11458.00293-.019.01921-.11865.00358-.0223.03906-.24691.00293-.01855c.00651-.03947.0127-.08.01888-.11947l.00358-.02165.03841-.24918.00261-.01636.0192-.12549.00131-.00911.01953-.12728.00032-.00309c.00651-.04248.0127-.08252.01888-.125l.00293-.01872.01823-.12264.00228-.01465.0166-.11369.00261-.01725.01757-.11873.00358-.02564.01758-.1202.001-.00781c.00553-.03687.01172-.0804.01693-.11727l.00293-.01953.01692-.11971.00326-.0223.03483-.24723.00293-.02124.0166-.1189.00293-.02287.01595-.11466.0013-.00936c.00521-.03971.01074-.07967.01628-.11939l.00358-.02693c.00521-.0398.01042-.078.016-.11776l.0026-.01945.01465-.11068.00228-.01831c.00553-.03979.01042-.07837.01563-.11816l.00358-.02588.01562-.12.00163-.01319.015-.11483.00228-.0179.01563-.12093.0026-.02165.016-.1241.00033-.00383c.00521-.04.00976-.07649.01465-.11637l.00358-.02865.01464-.11726.00261-.02173.01432-.11621.0013-.0092c.00521-.04281.00977-.08.01465-.1228l.00261-.02116.01464-.12053.00261-.0214c.00423-.03711.00911-.078.01367-.11507l.0013-.01091.01433-.12215.00293-.02425.014-.1206.00163-.015.01335-.11466.002-.017.014-.12362.00195-.01806c.00488-.04289.00977-.08448.01432-.12736l.00033-.00106c.00456-.04289.00911-.08334.014-.1263l.00162-.01661.01368-.12272.00227-.02042c.00944-.08586.01791-.165.027-.25106l.00228-.02067.013-.12215.00163-.01791.0127-.11865.001-.01025.013-.12541.00163-.01831c.00456-.043.00879-.08325.013-.1263l.001-.00887c.0039-.04021.00846-.08529.01269-.12549l.00065-.00871c.00456-.04305.00814-.0804.01237-.12345l.00228-.02466c.00423-.0402.00847-.08317.01237-.12337l.00033-.00578.012-.1224L383.50586,181l.01172-.12264.00195-.0214c.00423-.04313.00781-.08106.01172-.12419l.00065-.00456c.00358-.04028.00716-.07983.01107-.12011l.00228-.02425c.00358-.04029.00716-.07959.01107-.11988l.00195-.02311.01041-.11418.001-.01253.01074-.12134.00228-.026.01074-.12011.00163-.01872c.00326-.04037.00619-.07251.00977-.11288l.0013-.018.01042-.11955.00228-.02791c.00325-.03752.00683-.08138.00976-.1189l.00163-.01872c.00293-.03466.00651-.07609.00911-.11075l.002-.02149.00976-.11995.00195-.02572c.00326-.04045.00684-.08341.00977-.12386l.00033-.00106c.00325-.04044.00651-.08276.00944-.12321l.002-.02392.00944-.121.00163-.0205.00944-.12533v-.00155c.00325-.04044.00651-.08431.00944-.12475l.002-.02507.00879-.11963.00163-.02327.00781-.11133.0013-.01652.00847-.12085.002-.026.00846-.12231.001-.01465.00781-.114.00163-.02172c.0026-.04053.00521-.08122.00814-.12175l.0013-.023c.00293-.04346.00553-.0813.00814-.12484l.00065-.00626.00748-.12085.00163-.02181.00749-.12.00163-.02734.00716-.1167.00065-.00773c.00228-.04069.00488-.08276.00749-.12345l.0013-.02556c.0026-.04061.00488-.08073.00716-.12134l.0013-.01888.00684-.12019.00065-.00944c.00228-.04362.00456-.082.00716-.12566l.001-.02189.00683-.12353.001-.01774c.00228-.04069.00423-.07512.00618-.11589l.001-.0166.00651-.12126.0013-.02807.00651-.12411v-.00219c.00228-.04371.00424-.08236.00619-.12606l.001-.01888.00618-.12427.001-.02059c.00423-.08732.00781-.16772.01172-.25513l.001-.02107c.002-.04078.00391-.08326.00554-.124l.001-.02091.00521-.117.00065-.0122.00488-.12012.00131-.03084.00488-.119.001-.02214.00423-.11051.001-.02059.00456-.12337.001-.023.00456-.12386.00065-.01571.0039-.11523.00065-.0197c.00163-.04085.00293-.08081.00424-.12174l.001-.02767.00423-.12305v-.00716l.00391-.11946.00065-.02572.00391-.12036.00065-.02564.00358-.11906v-.00683c.0013-.04094.0026-.08358.00358-.1246l.00065-.02571c.0013-.041.00228-.08138.00326-.1224l.00065-.01945.00293-.12182.00032-.00855.00293-.12589.00065-.02523.00293-.124.00033-.01392.00228-.115.00065-.02271.00228-.12182.00065-.02539c.00065-.041.0013-.08374.00228-.12484v-.0096l.00228-.11841.00032-.02458.002-.1202.00033-.02881.00195-.11938v-.0048c.00065-.0411.0013-.08521.00163-.1263l.00033-.0236.00162-.12346.00033-.02164c.00032-.03817.00065-.07723.0013-.11548v-.01587c.00065-.044.001-.07967.0013-.12378l.00033-.02523.001-.12484v-.01391l.001-.12077v-.0153c.00033-.04118.00065-.08211.00065-.12329l.00033-.0284.00032-.12215.00033-.01547c0-.03825,0-.07552.00032-.11385v-.02539c0-.04126,0-.07975.00033-.12093v-.15234A106.66663,106.66663,0,0,0,277.33333,64Z" style="fill:#f1ecff"/><path d="M416,170.66667a74.66672,74.66672,0,0,0-74.66667,74.66666h0v.14543l.00033.07829v.04012l.00032.07617.00033.03548.00033.08578.00032.0275.00065.1119.00033.01872.00065.09318.00032.03524.001.07723.00033.03955.001.074.00033.03906.0013.09278.00033.01758.00162.11222.00033.028.00163.08293.00065.039.0013.07389.00065.04045.00163.07723.00065.03353.00488.22322.001.03345c.00065.02751.001.04932.00195.07691l.001.04093.00195.07349.001.03906.00228.07934.00065.03215c.0013.03743.00228.07251.00325.11l.00065.02189.00293.08943.001.03687.0026.075.00131.03988.0026.074.0013.03833.00326.09644.00065.01269.00391.11084.0013.03345.00325.078.00163.04.0026.07194.002.04.00325.07772.0013.03394.00489.1101v.00375l.00488.10652.00163.03435.00358.077.00195.0402.00326.07145.002.04053.00391.07626.002.03515c.00163.03727.00358.07178.00553.109l.001.02083.00488.088.002.04077.0039.06982.00261.0437.0039.06966.00228.04.00488.08773.00131.02238.00651.10881.00195.033.00488.07723.00228.03938.00456.0717.0026.04207.00489.07439.00227.03442.00717.10921.00065.01139.00651.09864.0026.03735.00488.07153.00326.04354.00488.06893.00293.04134.00554.07837.00227.03076.00782.10783.00228.03044.00618.07877.00326.04322.0052.067.00326.043.00553.07137.00293.03882.00749.0905.0013.018.00912.10954.00227.029.00684.0813.00293.037.00619.07243.00358.04085.00618.07251.00326.0376.00911.10319.002.02173.00814.09065.00358.03907.00651.07055.00391.04208.00651.07072.00358.03865.00716.07642.00326.03426.01009.10539.00325.03483.00716.07308.00456.04508.00651.06453.00456.04607.00618.06282.00489.04679.00781.07723.00293.02955.01107.106.0039.03736.00749.07.00488.04558.00684.063.00488.047.00749.06787.00423.03866.01074.09644.00391.03572.00911.08146.00456.04232.00749.06592.00521.04508.00781.06608.00488.04265.00847.07234.00423.03581.01237.10555.00358.0293.00944.078.00521.04338.00781.06518.00521.04354.00846.06869.00488.03979.01172.09172.00163.01473c.00456.03654.00879.07.01367.10644l.00488.03882.00879.06877.00554.04427.00846.0651.00553.04289.00944.07023.00489.03833.01334.10067.00391.02873.01107.08186.00553.04094.00912.06819.00586.043.00911.06478.00586.04419.00977.06893.0052.03866c.00489.03393.01009.06966.01465.10359l.00489.03312.01041.07365.00586.04183.01009.0682.00586.04053.01009.07023.00554.03751.01269.08627.00326.02156.0153.10466.00586.03792.01041.06869.00651.04394.00944.06291.00716.047.00977.063.00651.043.01367.08716.00684.0446.01237.079.00586.037.01107.06926.00683.04281.01074.06624.00651.04134.01237.07552.00489.03044.01692.10514.00489.02856.01269.07821.00651.03866.012.07129.00586.03572.01269.07569.00553.0332.01563.09147.0026.01546.01791.10515.00586.034.013.07373.00651.03866.01172.06673.00781.0437.01139.0647.00716.042.01791.09969.00521.02954.014.07829.00782.042.01139.06291.00846.0472.01107.0603.00814.04517.012.06461.00782.042c.00618.03344.012.0664.01855.09985l.00716.03947.01237.06616.00846.04387.01205.0638.00814.0437.012.06193.00847.04508.01367.07064.00846.0433.01758.0913.00846.044.012.06006.00944.04842.01139.05762.00944.04809.01237.06218.00814.04158.01692.08391.0114.05607.013.06461.01009.04965.01074.05338.01074.05192.0114.05558.01009.04851.01269.06168.00879.04216.02051.09879.00879.042.01335.06307.01009.048.01172.05534.01074.05013.01172.05509.01074.04989.01465.06714.00976.04541c.00586.0284.0127.05916.01888.08748l.01075.04948.012.05583.01074.04834.0127.05729.01009.04663.014.0625.00944.04191.02018.09041.01009.04493.015.06754.01009.04452.01368.05973.01106.0481.0127.05623.01074.04712.014.061.01009.04354.02279.09888.00846.03613.01563.06633.01074.04581.014.05941.01042.045.01432.06031.01042.04427.01628.06771.014.05851.01791.07479.01107.04614.014.058.0114.04623.01367.057.012.04948.01367.056.0114.04558.02344.09562.00878.03532.01758.071.01074.04272.015.05949.01172.04745.01432.05721.01172.04557.01693.06681.00879.03524.02506.09847.01139.04452.01465.05664.013.0507.01367.05355.01237.04768.015.05721.012.04639.01758.06673.01432.05493.02019.07634.01171.04533.016.05949.01171.04435.0153.058.01237.046.016.05949.01172.04362.02442.09009.012.04419.01725.06421.01237.04533.01563.057.013.04753.01562.05713.01205.04354.01758.06331.01139.04085.02637.095.01269.04606.01563.05525.01367.04908.015.05338.014.04989.01432.05029.01465.05143.01628.05746.02051.071.0192.06722.013.04541.01628.05713.01334.04533.016.05583.01432.04874.01595.05469.013.04517.026.08821.01367.04647.01823.06234.014.04712.01595.053.01432.04916.01628.05387.01432.04794.01628.05444.014.04655.02832.09342.01432.0472.016.053.01595.05208.01465.04794.01562.05184.0153.04948.016.05184.01595.05208.02832.0909.01433.047.01757.05631.014.0446.01693.05379.01465.04688.01627.05216.01628.051.0153.04923.02246.07015.02181.06852.01693.05339.0153.0485.01692.05282.01595.04907.01628.05021.016.05021.01595.04907.02507.07683.02148.06608.0153.04736.01725.052.01628.04989.01693.05119.01595.04817.01725.05249.01562.04769.01986.05974.02376.0712.02051.06071.0166.05.01661.04883.01692.05054.0166.04923.01726.05144.01692.04923.01628.04842.026.07658.01953.05672.02051.05965.01595.04615.01725.05045.01758.05119.01725.04948.01693.04891.01888.05428.0153.04419.03223.0922.01627.04623.01823.05184.01791.05061.01725.04924.01693.04769.01888.05273.01692.04761.01856.05273.03157.08765.0166.0472.01954.05388.01595.04443.01953.0542.01562.04313.01953.05395.01628.04493.01953.0533.01432.03914c.0127.03492.0254.07.03842.1049l.015.04134.02051.055.01562.0424.02019.05509.016.04256.01985.05388.016.04272c.01563.04216.02995.08049.0459.12264l.00716.0197.02181.05753.01465.03939.02051.05436.01693.04468.02018.05322.0153.04077.02181.05713.01269.03345.042.11019.01529.04.02084.054.01627.04256.02084.05355.01692.04378.02051.05315.01823.047.01888.04826.02051.05331.03646.09293.015.0385.02279.05737.01465.0376.02278.05786.0153.03849.02279.05729.01432.036c.01628.04175.03288.08277.04948.12451l.00814.02076.02213.0555.01661.04085.02278.05664.015.03784.02311.05713.015.03687.02442.06022.00879.02189.05371.13224.00976.02377.02409.05883.01595.0389.02214.0542.01692.0411.02246.05412.01726.042.02246.05436.00683.01668.05372.1294.01432.03369.02376.05737.01563.03744.02441.058.01465.03483.02539.06063.01009.02376.06348.15.00162.00334.02572.06054.01432.03394.02474.05761.016.0376.02442.05672.0153.0363.02506.05811.013.03043c.01726.03939.03386.07845.05111.11784l.0127.0297.02506.05762.01628.0376.02376.0542.01758.04044.02441.05551.0153.0354.08854.20068.016.03613.02507.05632.016.03613.02571.05786.01563.0354.026.05819.014.03125c.03092.06925.06282.13973.09375.2089l.01269.02759.028.06185.01432.0319.02669.05859.01563.03451.027.05957.00976.0214.05925.12891.01074.02376.02669.05778.01726.03752.02539.055.0166.03613.02669.05754.015.03271c.03223.06877.06413.13745.09636.20606l.013.02807.02734.05819.01661.03524.02669.0568.01692.03622.026.05517.0166.03483c.01985.04216.04.08464.06022.12671l.00651.01408.028.059.01563.03272.027.05639.01823.03776.02636.05493.01563.03256.02962.06176.00261.005.068.14087.01269.02588.028.058.01628.03337.028.05762.01628.033.029.05949.01432.02906c.03418.06966.06738.1372.10189.20678l.013.0267.02995.06038.01465.02954.02962.05925.0166.03344.02865.05786.01367.02719.10221.20369.016.03158.02962.05867.01563.03133.0293.0577.01692.033.02963.05868.00976.019c.02181.04321.04395.0865.06608.12972l.01074.02067.03125.06136.0153.02962.03028.05876.01595.03076.02995.05859.016.03093.10449.20125.015.0284.029.05534.01856.03605.02962.05656.01563.02971.0319.06038.01041.01994q.03809.0719.07585.144l.00228.00431.0319.06006.01595.02954.03.05681.01855.0345.0293.05534.01693.03166.03125.05827.01106.02042c.02181.04094.0459.08553.068.12647l.01107.02107.03255.06023.01595.02921.03157.05868.0153.02807.03418.06275.00977.01814c.03808.06975.07584.13933.11393.20891l.0153.02734.0319.05835.01563.02848.0332.06014.0153.02751.03353.06071.01009.01864c.03939.07112.07747.13948.11719.21045l.01334.02392.03418.061.015.02718.03287.05835.01693.03011.03353.05981.00065.001c.02832.05053.05762.102.08594.15242l.00553.00952.03451.06063.0166.02946.03288.05754.01595.0284.03418.05973.013.02246c.04.07048.08008.1399.12044.21021l.01009.01758.03548.06152.0153.026.03548.0612.01335.02344.03646.06241.00944.01636c.04069.07015.082.141.12305.2111l.01269.02149.03516.05973.01692.02873.03484.05908.01269.02132c.042.07162.08529.14478.12793.21623l.00586.00968.03874.06543.01172.01961.03841.06389.012.02051.03939.06543.00749.01245c.04362.07291.08724.1455.13151.21818l.00781.013.03971.06592.01074.01774.04.06591.01075.01726c.05924.09733.11751.19254.17708.28955l.01335.02173.03776.06128.014.02278.03809.06161.01237.01977c.0599.09684.11914.19239.17969.289l.01172.01856.03906.06266.01367.02173.03841.06112.01367.02181.12989.20564.00976.01547.03776.05924.01758.02759.03613.05713.01628.02523.03809.05989.00781.01213c.03125.04874.0612.09562.09277.14437l.00065.00146.03972.06169.01432.022.03841.05933.01595.02506.03841.05925.01335.02042c.04525.06958.09082.14.13639.20939l.00651.01026.041.06274.01367.02051.03939.06022.015.02262.04134.063.00489.00749c.04687.07088.09375.14209.141.21281l.01106.01668.041.0621.01269.019.042.06282.012.01791.04362.0651.00033.00073.14843.22079.00847.01245.04427.06576.01041.01513.04395.06519.00879.01277c.0638.09408.12956.19027.19368.284l.01368.02.04166.06063.013.019.04362.063.00716.01042c.04818.06982.09734.14119.14584.21085l.00814.01172.04231.061.0153.02156.041.05917.01562.02213.041.0586.01074.01521c.04623.06625.0944.13485.14095.20093l.013.01839.04167.0586.01628.02335.04231.05965.01009.014c.04883.06909.09831.13835.14747.20728l.00748.01017.04427.06177.013.01839.0433.0603.01367.019.04525.06307.00423.00578c.04948.06869.10091.13949.15072.20809l.01106.0153.0433.05941.0153.021.042.05778.0166.02271.043.05867.00488.00676.14844.20223.01595.0214.043.05819.015.02034.04427.05957.0114.01555c.05273.071.10254.13794.1556.2089l.002.00244.0459.06161.01465.01953.043.05729.01661.022.043.05721.01367.01783q.07275.09679.14616.19344l.01334.01766.04069.05354.02149.02832.03971.052.01953.02579.042.05477.00782.01026c.05143.06722.10188.133.15364.2l.01172.01538.0459.05924.01562.02019.0446.0577.01335.01717c.05175.06689.10286.13257.15494.1993l.00619.00805.04687.06.01465.01856.04427.0568.01661.02108.04622.059.00586.00732q.07666.09753.15364.19466l.01726.02189.04427.05583.016.01994.04525.05705.01627.0201.0459.0577.00586.00708c.05273.06616.10514.13143.15788.19734l.01432.01774.04655.05778.0153.019.04557.05639.01563.01921c.05306.06575.10742.13281.1608.1984l.00261.0031.04818.05883.01627.01994.04623.05648.014.01733.04883.05949.00749.00895c.05371.06535.1097.13371.16374.1989l.00813.00984.04851.05868.0153.01823.04785.05786.013.01538.0498.06014.002.00228c.05664.06795.11067.13232.16731.2l.01237.01481.0472.05607.01791.02133.0472.05582.01041.01237c.05437.06462.10971.12972.16439.19418l.00814.00968.04981.05819.01432.01692.04752.05575.01661.01937.04882.05721.00749.00871c.055.0642.11035.12858.16569.19254l.01139.01327.05079.059.01171.01334.05176.0599.01074.01245c.07422.08569.14974.17228.22461.25757l.0153.01766.04851.05534.016.018.04915.05591.0127.0144c.05826.06633.1136.12883.1722.195l.002.002.05111.05786.01627.01806.04785.05388.01791.02.04752.05322.0153.01725c.055.06161.109.12191.16439.18327l.01042.01156.05045.056.01595.01765.05111.05673.01042.01147c.07747.08545.1556.17155.2334.25667l.01106.01237.05176.0564.0153.01677.05241.057.00684.00773.17871.19385.00423.00464.05306.05737.01465.01571.05013.054.01692.01814.05241.05616.00228.00268c.05762.06185.11914.12761.17708.18929l.01335.01416.05176.05518.01432.0153.05306.05615.012.01294c.0791.08382.15918.16813.2386.25155l.00977.01049.05566.05835.01107.0114.055.05769.00977.01034c.05989.06242.12044.12533.18034.18758l.00488.005.05208.05412.01856.019.05078.05273.01432.01465.05534.05705.00163.00179c.06315.06478.12435.1276.1875.19214l.00586.006.056.05729.013.013.05566.05672.00977.00993c.08073.08211.16439.16691.24577.2487l.00976.00985.05534.05574.014.01416.05631.05656.00423.00407c.0625.06258.12468.12459.18718.18693l.00683.00675.055.05461.015.015.054.05363.01367.01351c.082.08106.16374.16171.24609.24235l.0114.01123.05566.05428.01367.01351.055.0538.01464.01416q.12159.11865.24349.23657l.01628.01554.05339.05168.01725.01644.05306.0511.0153.01457c.06217.0599.124.11922.18652.17888l.00195.0017.058.05518.01464.01383.05534.05266.01433.01383.057.05371.00651.00619c.0625.05941.1224.116.18555.17513l.01367.0131.05241.04907.02116.01994.05273.04924.015.01407c.08431.07878.16666.15552.2513.23389l.01237.01139.056.052.01693.01554.056.05168.01041.00968c.06348.05851.126.1158.18978.17415l.00716.00676.05827.05314.01432.0131.0573.05225.01269.01164c.08529.07755.16992.15421.25553.23136l.014.01261.057.05144.01432.01277.05925.05331.00878.00789c.08724.07829.17253.1543.2601.23218l.01367.012.05762.05135.01562.01376.05632.04988.01595.014c.06477.05721.12858.11336.19336.17041l.0026.00211.05957.05217.01628.01424.05761.05046.0127.01115c.08691.07584.17676.1538.264.22924l.00911.00806.05924.05111.0153.0131.06023.05176.00911.00805c.06706.05762.13444.11524.2015.17261l.00228.00187.05957.051.01562.013.05534.0472.02246.01912.054.0459.01367.01164c.06478.05469.1276.10775.19238.16219l.01107.00952.05859.04907.01693.01416.05794.04851.0153.01294c.08854.074.17578.14681.26465.22045l.0127.0105.05989.04956.015.01245.05924.04883.01595.01319q.09814.08069.19629.16121l.00749.00594.05534.04525.02278.0188.05436.04411.02181.01782.055.04492.01725.01392c.06413.05208.12793.10359.19238.15551l.012.00977.05794.04663.02051.01644.05566.04468.02051.0166.05729.04573.01074.00871c.06608.0529.13054.10409.19662.15674l.015.01188.05632.04468.02343.01855.05534.04362.01888.0149c.06478.05127.12891.1018.194.15283l.012.00936.056.04386.02278.01774.054.04232.02539.01977.05371.04167.02084.01628c.06217.04842.12565.09757.18815.14583l.01823.01408.056.04313.02376.01823.054.04175.02311.01766.05859.04492.0026.00211c.06739.05152.13672.10458.20411.15577l.01953.015.05664.043.02148.01628.058.04386.01855.014c.06771.051.137.10343.20475.1543l.00358.00268.06218.04647.01758.0131.06087.04574.0166.0122.06152.046.013.00961c.06771.05053.13607.10131.20411.15161l.01041.00773.05925.04362.02311.017.05729.04215.01953.01432.0612.04509.00423.003c.06966.05119.141.10311.21094.15413l.01335.00969.05989.0437.02149.01563.05924.043.0179.01286c.06869.04964.139.10043.20769.14982l.00488.00342.0638.04582.01628.01172.06087.04345.02018.01449.0625.04451.00554.00391c.07031.05029.13964.09945.21028.1495l.01465.01033.06185.0437.01823.0127.06152.04345.01726.012c.0944.06641.18554.13029.28027.19629l.01693.01164.06054.04215.02051.01424.0599.04159.0205.01416c.07129.04931.14063.09725.21224.14632l.00163.00114.06413.04411.01823.01253.0625.04264.01823.01237.06315.0433.01041.007c.07325.04988.14812.10066.22136.1503l.00032.00017.06967.047.01269.00855.06771.04557.00977.00659c.09733.0656.19531.13111.293.19621l.01172.00765.06315.04207.02084.01376.06347.04215.01107.00733c.07389.04891.14844.09806.22266.14672l.0013.0009.06673.04378.0166.01091.06315.04109.02019.01327.06347.04134.01107.00724c.071.04631.1416.09213.21289.13819l.01432.00911.06511.04208.01693.0109.06477.04159.01628.01049c.0957.06153.19108.1224.28711.18343l.02083.01327.06185.03931.02018.01277.06413.04053.0153.00968c.09766.06177.19434.12248.29264.18392l.0153.00969.06771.04215.013.00822.06934.04313.00684.00424c.07714.04793.15266.09456.22981.14217l.00163.00105.06934.04265.01692.0105.06739.04142.01106.00667q.15039.09229.30144.18376l.01139.007.06738.04077.01725.01033.06869.04159.00716.00415c.0778.04687.15495.09334.23307.14l.00033.00017.06868.04109.01726.01026.06478.03857.0205.01221.06674.03955.00455.0026c.07455.04436.14974.08871.22494.13282l.01465.00862.06608.0389.01888.01091.06575.03857.01693.01c.10026.05843.19857.11556.29883.17358l.01562.009.06869.03963.01432.0083.07031.04045.01042.006c.10059.0577.20312.11629.304.17358l.01725.00985.06836.03865.01465.00831.07194.04077.00032.00008q.1211.06847.24251.13623l.00033.00024.07324.04094.01433.008.07031.03931.01237.00683c.10319.05738.20735.11491.31054.1718l.00944.005.07032.03866.01692.0092.07162.0393.00391.002c.10514.05753.21191.11547.31738.17252l.01009.00554.07357.03955.01172.00634c.10579.057.20865.112.31445.16838l.00814.00431.07161.038.016.00846.07.037.01432.00773c.10287.05428.20736.10913.31022.163l.01433.0074.07031.03678.01562.00806.07259.03768.00749.004c.10677.05534.21094.10921.318.16414l.01139.00578.07454.03825.01009.00521c.10873.05566.21582.10994.32487.165l.00131.00065.07324.037.0179.009.07162.03589.00976.005q.16113.08094.32324.16113l.00521.00269.07585.03743.013.00651.07552.03728.00391.002c.10807.05314.21777.10693.32617.15959l.00944.00464.07552.03662.01172.00577c.1084.05249.21256.10271.32129.15471l.01009.00488.07324.035.01563.00741.07324.03491.01107.00529c.10872.05168.21549.10213.32454.1534l.00814.00367.07747.03637.00912.00432.07942.03711.001.00048c.111.05176.22135.10287.33268.15406l.00879.00407.07975.03662.00456.00211c.1377.06323.28093.12834.41927.19076l.00521.00236c.16862.076.33691.15128.50619.22607l.00683.00309c.16927.07471.34017.14958.51009.22315l.00033.00016q.94384.40881,1.90071.792l.00066.00033q.52245.2091,1.04752.41032l.00033.00016q2.80516,1.07434,5.71484,1.926.2085.06078.41667.11727c.08138.02465.16178.04858.24349.07234.39941.11271.804.22323,1.20605.32943l.02474.00651.05176.01359q.15966.042.32.08333l.01009.00269c.14909.03849.30306.07772.45247.11531a21.11972,21.11972,0,0,0,25.48372-15.27726,21.538,21.538,0,0,0-15.27962-26.1525l-.48079-.12818c-.06673-.01782-.13281-.03507-.19955-.05216-.09244-.0284-.18619-.05656-.27929-.08374A32.01155,32.01155,0,0,1,416,213.33333h0a31.51909,31.51909,0,0,1,15.502,3.99c.08562.04753.17058.09408.25651.1403.05957.03581.12012.07178.18034.10718l.43294.25448a21.52394,21.52394,0,0,0,29.34506-7.501,21.13144,21.13144,0,0,0-7.03223-28.86776c-.13639-.08268-.26986-.16325-.4069-.24511l-.00326-.002q-.17919-.10706-.35872-.21321l-.05176-.0306-.02181-.01286-.09114-.05347-.00131-.00089c-.06477-.038-.126-.07373-.19075-.11158l-.00781-.00447-.0752-.04395q-.10644-.06177-.21321-.12329l-.00814-.0048c-.1364-.07861-.26726-.15365-.404-.23136q-.11427-.06385-.22917-.12622-.17823-.10377-.35905-.20476l-.07487-.0415-.00456-.00261-.08919-.04939-.01758-.00969-.08887-.04907-.00325-.00187-.08789-.04834-.01432-.00789-.09017-.0494-.00912-.00505-.08528-.04655-.0114-.00626-.08821-.04794-.01823-.00984c-.0599-.03256-.12142-.06584-.18164-.09823l-.012-.00659c-.06217-.03353-.126-.06779-.18815-.10108l-.00814-.00439c-.06412-.03442-.12923-.069-.19368-.10327l-.00293-.00163-.09668-.05127-.00553-.003c-.06446-.0341-.12989-.0686-.19467-.10254l-.0039-.00212c-.06673-.03507-.13021-.06835-.19694-.10319l-.00163-.00089c-.167-.08716-.33333-.173-.501-.25895l-.001-.00049a74.13609,74.13609,0,0,0-16.79037-6.17725l-.00032-.00008q-.16895-.03979-.33822-.07886h0c-.07552-.01741-.14909-.03426-.22428-.05143l-.00391-.00089c-.07292-.0166-.14714-.03329-.22-.04973l-.00781-.00171c-.07325-.01643-.14779-.03295-.22071-.04915l-.00293-.00065-.112-.02466-.00065-.00016-.11165-.02433-.002-.00049-.11166-.02417-.00325-.00065c-.07552-.01636-.14681-.03166-.22266-.04785l-.00488-.001q-.10986-.02344-.22005-.04647l-.00847-.00179-.10937-.02287-.00228-.0004-.10742-.0223-.00716-.00147-.10612-.02181-.01335-.00268c-.071-.01457-.1429-.02914-.21419-.04354l-.01237-.00244c-.07129-.01433-.14519-.02914-.21647-.04322l-.00912-.00187q-.11084-.02184-.22168-.04354l-.00456-.00089-.11035-.0214-.00651-.00122c-.07129-.01384-.14909-.02865-.22038-.04232l-.00911-.00163c-.07129-.01359-.14844-.02808-.22005-.0415l-.00782-.00147q-.11131-.02074-.22265-.04118l-.00488-.00089-.10905-.01994-.01042-.00187-.1071-.01945-.00162-.00025-.1084-.01945-.014-.00252c-.07194-.01286-.1429-.02539-.21484-.038l-.01335-.00236-.10872-.019-.00033-.00009-.10677-.01847-.01335-.00228-.10742-.01847-.00749-.00122-.10677-.01807-.00488-.00089-.10872-.01823-.01237-.002q-.10791-.01818-.21647-.03589l-.014-.00236q-.10841-.0177-.21615-.03507l-.01334-.0022-.10612-.01693-.013-.00211-.10059-.016-.00912-.00138-.10611-.01669-.01661-.00252c-.07226-.01131-.14-.02173-.21224-.0328l-.01888-.00285c-.07226-.01106-.14257-.02172-.21484-.03255l-.01335-.00195-.10839-.0162-.00619-.00089-.10612-.01563-.00846-.00122-.10808-.0157-.01334-.002-.10645-.01529-.00228-.00033-.10742-.0153-.01758-.00252c-.07259-.01026-.1416-.01986-.21419-.03l-.01562-.0022-.10743-.01473-.00846-.00114-.10254-.01391-.012-.00171-.10742-.01441-.013-.00171q-.10936-.01464-.21875-.02889l-.01367-.00179c-.07291-.00944-.14355-.01855-.21647-.02783l-.01758-.00228-.10774-.01359-.00424-.00049-.10481-.0131-.01433-.00179-.10709-.01318-.01237-.00155-.10319-.01245-.00847-.00106-.10839-.013-.01368-.00163c-.07324-.0087-.1442-.017-.21744-.02555l-.01726-.00195-.10677-.01237-.00879-.001-.10058-.01139-.0166-.00187-.10547-.0118-.01563-.00171-.10156-.01123-.00781-.0009-.10677-.01164-.01986-.00211-.21289-.02262-.02116-.0022-.10514-.011-.00814-.00081-.09733-.00993-.02344-.00236-.10254-.01034-.0179-.00179-.0944-.00935-.01628-.00163-.10579-.01034-.01726-.00163-.10254-.00984-.00651-.00065-.10612-.01-.0205-.002-.1058-.00976-.00879-.00082-.098-.00895-.02279-.002-.10253-.0092-.01954-.00171-.09114-.008-.01986-.00171-.10156-.00879-.02474-.00212-.09668-.00822-.00911-.00081-.10547-.00871-.02181-.00187-.21354-.01725-.02084-.00163-.10547-.0083-.01432-.00106-.09473-.00732-.02083-.00155-.10384-.00781-.01953-.00147-.09961-.0074-.00912-.00065-.10546-.00757-.02312-.00163-.10612-.00749-.00228-.00016-.10514-.00724-.02116-.00147-.10612-.00716-.01139-.00073-.10059-.00667-.0153-.001-.10514-.00676-.02213-.00138-.09636-.006-.01237-.00073-.10579-.00651-.02214-.00131c-.06933-.00415-.14355-.00854-.21321-.01253l-.02312-.0013-.10481-.00586-.01433-.00081-.0944-.00513-.02278-.00122-.10385-.00553-.02018-.00106-.09212-.00472-.01921-.001-.10319-.00521-.02343-.00114-.10222-.005-.00553-.00025-.10612-.005-.02376-.00106-.10482-.00472-.01237-.00057-.09668-.00423-.02246-.001-.10352-.00431-.02083-.00081-.09245-.00375-.01986-.00081-.10221-.004-.02669-.001-.10026-.00375-.00488-.00016-.10612-.00383-.02474-.00081-.1058-.00366-.00814-.00025-.10156-.00325-.02083-.00073-.1058-.00326-.0179-.00049-.09342-.00276-.02051-.00057-.10287-.00285-.02669-.00073-.09147-.00236-.0166-.00041-.10384-.0026-.02507-.00057-.10547-.00245-.00976-.00016-.097-.00211-.026-.00057-.10319-.002-.02018-.00032-.09245-.00171-.02116-.00041-.10514-.00171-.02084-.00032-.10091-.00155-.00879-.00008-.10579-.00147-.026-.00032-.1058-.00122-.00553-.00008-.10319-.00106-.02311-.00025-.10645-.00089-.01432-.00016-.096-.00066-.02181-.00016-.10514-.00057-.02084-.00008-.096-.00041H416.237l-.10514-.00024-.02442-.00008L416,170.66667Z" style="fill:#d1c2ff"/><path d="M58.82365,396.49678h95.686a30.16986,30.16986,0,0,1,30.16986,30.16986v.00006a30.16986,30.16986,0,0,1-30.16986,30.16986h-95.686A30.16986,30.16986,0,0,1,28.65379,426.6667v-.00007a30.16985,30.16985,0,0,1,30.16985-30.16985Z" transform="translate(-270.45695 200.3925) rotate(-45)" style="fill:#e4dbff"/><path d="M208.157,396.49678h95.686a30.16986,30.16986,0,0,1,30.16986,30.16986v.00006A30.16986,30.16986,0,0,1,303.843,456.83656H208.157a30.16986,30.16986,0,0,1-30.16986-30.16986v-.00007A30.16985,30.16985,0,0,1,208.157,396.49678Z" transform="translate(-226.71823 305.98711) rotate(-45)" style="fill:#e4dbff"/><path d="M357.49031,396.49678h95.686a30.16986,30.16986,0,0,1,30.16986,30.16986v.00007a30.16985,30.16985,0,0,1-30.16985,30.16985h-95.686a30.16987,30.16987,0,0,1-30.16987-30.16987v-.00006A30.16985,30.16985,0,0,1,357.49031,396.49678Z" transform="translate(-182.97951 411.58172) rotate(-45)" style="fill:#e4dbff"/><rect x="48.15701" y="422.24839" width="138.35265" height="30.16989" rx="15.08493" ry="15.08493" transform="translate(-274.87523 211.05916) rotate(-45)" style="fill:#d1c2ff"/><circle cx="64" cy="448" r="21.33333" style="fill:#f1ecff"/><rect x="197.49034" y="422.24839" width="138.35265" height="30.16989" rx="15.08493" ry="15.08493" transform="translate(-231.13651 316.6538) rotate(-45)" style="fill:#d1c2ff"/><circle cx="213.33333" cy="448" r="21.33333" style="fill:#f1ecff"/><rect x="346.82367" y="422.24839" width="138.35265" height="30.16989" rx="15.08493" ry="15.08493" transform="translate(-187.39779 422.24836) rotate(-45)" style="fill:#d1c2ff"/><circle cx="362.66667" cy="448" r="21.33333" style="fill:#f1ecff"/></g></svg>