<svg xmlns="http://www.w3.org/2000/svg" viewBox="0 0 48 48"><defs><style>.cls-1{fill:#7c7d7d;}.cls-2{fill:#919191;}.cls-3{fill:#dad7e5;}.cls-4{fill:#edebf2;}.cls-5{fill:#b2e5fb;}</style></defs><title>5. Windmill energy</title><g id="_5._Windmill_energy" data-name="5. Windmill energy"><path class="cls-1" d="M36.5,42h-5l.91-24.46a3,3,0,0,0,3.18,0C36.55,43.09,36.41,39.32,36.5,42Z"/><path class="cls-2" d="M36.43,40a2.82,2.82,0,0,1-2.82-2.93c.82-22,.23-18.45,2-19.53Z"/><path class="cls-3" d="M36.85,3.14l-.7,9.77a3,3,0,0,0-4.3,0l-.7-9.77a2,2,0,0,1,2-2.14h1.7A2,2,0,0,1,36.85,3.14Z"/><path class="cls-3" d="M46.55,21.26l-.85,1.48a2,2,0,0,1-2.85.65c-10.37-7-8.14-4.86-6.65-6.35a3,3,0,0,0,.68-2.86l8.81,4.28A2,2,0,0,1,46.55,21.26Z"/><path class="cls-1" d="M37,15a3,3,0,1,1-5.88-.82A3,3,0,0,1,37,15Z"/><path class="cls-2" d="M36.91,15.73C36.73,16.47,33,16,33,13a2.69,2.69,0,0,1,.14-.87A3,3,0,0,1,36.91,15.73Z"/><path class="cls-3" d="M33.26,17.9l-8.11,5.49a2,2,0,0,1-2.85-.65c-.72-1.25-1.57-2.25-.85-3.47.42-.76.24-.51,9.67-5.09A3,3,0,0,0,33.26,17.9Z"/><path class="cls-4" d="M31.72,16.94l-5.17,3.5a3.57,3.57,0,0,1-5.1-1.17c-.25-.44,2.49-1.6,9.67-5.09A3,3,0,0,0,31.72,16.94Z"/><path class="cls-4" d="M36.82,16l5.62,2.73a3.58,3.58,0,0,1,1.53,5c-.25.44-2.63-1.35-9.24-5.83A2.91,2.91,0,0,0,36.82,16Z"/><path class="cls-4" d="M33.46,12.06,33,5.83A3.57,3.57,0,0,1,36.58,2c.5,0,.14,3-.43,10.92A2.92,2.92,0,0,0,33.46,12.06Z"/><path class="cls-1" d="M41,45v2H27V45a3,3,0,0,1,3-3h8A3,3,0,0,1,41,45Z"/><path class="cls-2" d="M41,45H32a2.08,2.08,0,0,1-1.82-3H38A3,3,0,0,1,41,45Z"/><path class="cls-5" d="M19,13H1a1,1,0,0,1,0-2H19a1,1,0,0,0,0-2,1,1,0,0,1,0-2C23,7,23,13,19,13Z"/><path class="cls-5" d="M13,9H3A1,1,0,0,1,3,7H13a1,1,0,0,0,0-2,1,1,0,0,1,0-2C17,3,17,9,13,9Z"/><path class="cls-5" d="M15,21a1,1,0,0,1,0-2,1,1,0,0,0,0-2H5a1,1,0,0,1,0-2H15C19,15,19,21,15,21Z"/></g></svg>